ISO-10303-21;
HEADER;
/* Generated by software containing ST-Developer
 * from STEP Tools, Inc. (www.steptools.com) 
 */
/* OPTION: using custom renumber hook */

FILE_DESCRIPTION(
/* description */ ('STEP AP242 Edition 2',
'CAx-IF Rec.Pracs.---Representation and Presentation of Product Manufa
cturing Information (PMI)---4.0---2014-10-13',
'CAx-IF Rec.Pracs.---3D Tessellated Geometry---0.4---2014-09-14','2;1',
'CAx-IF Rec.Pracs.---User Defined Attributes---1.5---2016-08-15'),
/* implementation_level */ '2;1');

FILE_NAME(
/* name */ 'Havoc F v5 Long - Part 8',
/* time_stamp */ '2026-05-25T18:07:31Z',
/* author */ (''),
/* organization */ (''),
/* preprocessor_version */ 'ST-DEVELOPER v20',
/* originating_system */ 'ONSHAPE BY PTC INC, 1.215',
/* authorisation */ '  ');

FILE_SCHEMA (('AP242_MANAGED_MODEL_BASED_3D_ENGINEERING_MIM_LF { 1 0 10303 442 3 1 4 }'));
ENDSEC;

DATA;
#10=SHAPE_REPRESENTATION_RELATIONSHIP('','',#635,#11);
#11=ADVANCED_BREP_SHAPE_REPRESENTATION('',(#633),#1199);
#12=B_SPLINE_CURVE_WITH_KNOTS('',3,(#1012,#1013,#1014,#1015,#1016,#1017,
#1018),.UNSPECIFIED.,.F.,.F.,(4,1,1,1,4),(0.,0.25,0.5,0.75,1.),
 .UNSPECIFIED.);
#13=B_SPLINE_CURVE_WITH_KNOTS('',3,(#1019,#1020,#1021,#1022,#1023,#1024,
#1025),.UNSPECIFIED.,.F.,.F.,(4,1,1,1,4),(0.,0.25,0.5,0.75,1.),
 .UNSPECIFIED.);
#14=B_SPLINE_CURVE_WITH_KNOTS('',3,(#1062,#1063,#1064,#1065,#1066,#1067,
#1068),.UNSPECIFIED.,.F.,.F.,(4,1,1,1,4),(0.,0.25,0.5,0.75,1.),
 .UNSPECIFIED.);
#15=B_SPLINE_CURVE_WITH_KNOTS('',3,(#1069,#1070,#1071,#1072,#1073,#1074,
#1075),.UNSPECIFIED.,.F.,.F.,(4,1,1,1,4),(0.,0.25,0.5,0.75,1.),
 .UNSPECIFIED.);
#16=B_SPLINE_CURVE_WITH_KNOTS('',3,(#1110,#1111,#1112,#1113,#1114),
 .UNSPECIFIED.,.F.,.F.,(4,1,4),(0.,0.5,1.),.UNSPECIFIED.);
#17=B_SPLINE_CURVE_WITH_KNOTS('',3,(#1115,#1116,#1117,#1118,#1119),
 .UNSPECIFIED.,.F.,.F.,(4,1,4),(0.,0.5,1.),.UNSPECIFIED.);
#18=B_SPLINE_CURVE_WITH_KNOTS('',3,(#1152,#1153,#1154,#1155,#1156),
 .UNSPECIFIED.,.F.,.F.,(4,1,4),(0.,0.5,1.),.UNSPECIFIED.);
#19=B_SPLINE_CURVE_WITH_KNOTS('',3,(#1157,#1158,#1159,#1160,#1161),
 .UNSPECIFIED.,.F.,.F.,(4,1,4),(0.,0.5,1.),.UNSPECIFIED.);
#20=B_SPLINE_CURVE_WITH_KNOTS('',3,(#1172,#1173,#1174,#1175),
 .UNSPECIFIED.,.F.,.F.,(4,4),(0.,1.),.UNSPECIFIED.);
#21=B_SPLINE_CURVE_WITH_KNOTS('',3,(#1176,#1177,#1178,#1179),
 .UNSPECIFIED.,.F.,.F.,(4,4),(0.,1.),.UNSPECIFIED.);
#22=B_SPLINE_CURVE_WITH_KNOTS('',3,(#1188,#1189,#1190,#1191),
 .UNSPECIFIED.,.F.,.F.,(4,4),(0.,1.),.UNSPECIFIED.);
#23=B_SPLINE_CURVE_WITH_KNOTS('',3,(#1192,#1193,#1194,#1195),
 .UNSPECIFIED.,.F.,.F.,(4,4),(0.,1.),.UNSPECIFIED.);
#24=B_SPLINE_SURFACE_WITH_KNOTS('',1,3,((#976,#977,#978,#979,#980,#981,
#982,#983,#984,#985,#986,#987,#988,#989,#990,#991,#992,#993),(#994,#995,
#996,#997,#998,#999,#1000,#1001,#1002,#1003,#1004,#1005,#1006,#1007,#1008,
#1009,#1010,#1011)),.RULED_SURF.,.F.,.F.,.F.,(2,2),(4,2,2,2,2,2,2,2,4),
(0.,1.),(0.,0.25,0.375,0.4375,0.46875,0.484375,0.4921875,0.5,1.),
 .UNSPECIFIED.);
#25=B_SPLINE_SURFACE_WITH_KNOTS('',1,3,((#1026,#1027,#1028,#1029,#1030,
#1031,#1032,#1033,#1034,#1035,#1036,#1037,#1038,#1039,#1040,#1041,#1042,
#1043),(#1044,#1045,#1046,#1047,#1048,#1049,#1050,#1051,#1052,#1053,#1054,
#1055,#1056,#1057,#1058,#1059,#1060,#1061)),.RULED_SURF.,.F.,.F.,.F.,(2,
2),(4,2,2,2,2,2,2,2,4),(0.,1.),(0.,0.25,0.375,0.4375,0.46875,0.484375,0.4921875,
0.5,1.),.UNSPECIFIED.);
#26=B_SPLINE_SURFACE_WITH_KNOTS('',1,3,((#1078,#1079,#1080,#1081,#1082,
#1083,#1084,#1085,#1086,#1087,#1088,#1089,#1090,#1091,#1092,#1093),(#1094,
#1095,#1096,#1097,#1098,#1099,#1100,#1101,#1102,#1103,#1104,#1105,#1106,
#1107,#1108,#1109)),.RULED_SURF.,.F.,.F.,.F.,(2,2),(4,2,2,2,2,2,2,4),(0.,
1.),(0.,0.25,0.375,0.4375,0.46875,0.484375,0.5,1.),.UNSPECIFIED.);
#27=B_SPLINE_SURFACE_WITH_KNOTS('',1,3,((#1120,#1121,#1122,#1123,#1124,
#1125,#1126,#1127,#1128,#1129,#1130,#1131,#1132,#1133,#1134,#1135),(#1136,
#1137,#1138,#1139,#1140,#1141,#1142,#1143,#1144,#1145,#1146,#1147,#1148,
#1149,#1150,#1151)),.RULED_SURF.,.F.,.F.,.F.,(2,2),(4,2,2,2,2,2,2,4),(0.,
1.),(0.,0.25,0.375,0.4375,0.46875,0.484375,0.5,1.),.UNSPECIFIED.);
#28=B_SPLINE_SURFACE_WITH_KNOTS('',1,3,((#1164,#1165,#1166,#1167),(#1168,
#1169,#1170,#1171)),.RULED_SURF.,.F.,.F.,.F.,(2,2),(4,4),(0.,1.),(0.,1.),
 .PIECEWISE_BEZIER_KNOTS.);
#29=B_SPLINE_SURFACE_WITH_KNOTS('',1,3,((#1180,#1181,#1182,#1183),(#1184,
#1185,#1186,#1187)),.RULED_SURF.,.F.,.F.,.F.,(2,2),(4,4),(0.,1.),(0.,1.),
 .PIECEWISE_BEZIER_KNOTS.);
#30=CIRCLE('',#645,0.001);
#31=CIRCLE('',#646,0.001);
#32=CIRCLE('',#648,0.001);
#33=CIRCLE('',#649,0.001);
#34=CIRCLE('',#661,0.001);
#35=CIRCLE('',#662,0.001);
#36=CIRCLE('',#665,0.001);
#37=CIRCLE('',#666,0.001);
#38=CIRCLE('',#668,0.0045);
#39=CIRCLE('',#669,0.0045);
#40=CIRCLE('',#671,0.0045);
#41=CIRCLE('',#672,0.0045);
#42=CYLINDRICAL_SURFACE('',#644,0.001);
#43=CYLINDRICAL_SURFACE('',#647,0.001);
#44=CYLINDRICAL_SURFACE('',#660,0.001);
#45=CYLINDRICAL_SURFACE('',#664,0.001);
#46=CYLINDRICAL_SURFACE('',#673,0.0045);
#47=CYLINDRICAL_SURFACE('',#674,0.0045);
#48=CYLINDRICAL_SURFACE('',#675,0.005);
#49=CYLINDRICAL_SURFACE('',#676,0.004);
#50=CYLINDRICAL_SURFACE('',#677,0.005);
#51=CYLINDRICAL_SURFACE('',#678,0.004);
#52=CYLINDRICAL_SURFACE('',#679,0.005);
#53=CYLINDRICAL_SURFACE('',#680,0.004);
#54=ORIENTED_EDGE('',*,*,#218,.F.);
#55=ORIENTED_EDGE('',*,*,#219,.T.);
#56=ORIENTED_EDGE('',*,*,#220,.T.);
#57=ORIENTED_EDGE('',*,*,#221,.F.);
#58=ORIENTED_EDGE('',*,*,#222,.F.);
#59=ORIENTED_EDGE('',*,*,#223,.F.);
#60=ORIENTED_EDGE('',*,*,#224,.T.);
#61=ORIENTED_EDGE('',*,*,#225,.T.);
#62=ORIENTED_EDGE('',*,*,#226,.F.);
#63=ORIENTED_EDGE('',*,*,#218,.T.);
#64=ORIENTED_EDGE('',*,*,#227,.T.);
#65=ORIENTED_EDGE('',*,*,#224,.F.);
#66=ORIENTED_EDGE('',*,*,#225,.F.);
#67=ORIENTED_EDGE('',*,*,#227,.F.);
#68=ORIENTED_EDGE('',*,*,#221,.T.);
#69=ORIENTED_EDGE('',*,*,#228,.T.);
#70=ORIENTED_EDGE('',*,*,#223,.T.);
#71=ORIENTED_EDGE('',*,*,#229,.F.);
#72=ORIENTED_EDGE('',*,*,#219,.F.);
#73=ORIENTED_EDGE('',*,*,#226,.T.);
#74=ORIENTED_EDGE('',*,*,#230,.F.);
#75=ORIENTED_EDGE('',*,*,#231,.T.);
#76=ORIENTED_EDGE('',*,*,#232,.T.);
#77=ORIENTED_EDGE('',*,*,#233,.F.);
#78=ORIENTED_EDGE('',*,*,#234,.F.);
#79=ORIENTED_EDGE('',*,*,#235,.F.);
#80=ORIENTED_EDGE('',*,*,#236,.T.);
#81=ORIENTED_EDGE('',*,*,#237,.T.);
#82=ORIENTED_EDGE('',*,*,#238,.T.);
#83=ORIENTED_EDGE('',*,*,#239,.F.);
#84=ORIENTED_EDGE('',*,*,#240,.F.);
#85=ORIENTED_EDGE('',*,*,#241,.T.);
#86=ORIENTED_EDGE('',*,*,#238,.F.);
#87=ORIENTED_EDGE('',*,*,#237,.F.);
#88=ORIENTED_EDGE('',*,*,#242,.F.);
#89=ORIENTED_EDGE('',*,*,#233,.T.);
#90=ORIENTED_EDGE('',*,*,#243,.F.);
#91=ORIENTED_EDGE('',*,*,#244,.T.);
#92=ORIENTED_EDGE('',*,*,#240,.T.);
#93=ORIENTED_EDGE('',*,*,#239,.T.);
#94=ORIENTED_EDGE('',*,*,#235,.T.);
#95=ORIENTED_EDGE('',*,*,#245,.F.);
#96=ORIENTED_EDGE('',*,*,#246,.T.);
#97=ORIENTED_EDGE('',*,*,#231,.F.);
#98=ORIENTED_EDGE('',*,*,#247,.T.);
#99=ORIENTED_EDGE('',*,*,#241,.F.);
#100=ORIENTED_EDGE('',*,*,#248,.F.);
#101=ORIENTED_EDGE('',*,*,#249,.F.);
#102=ORIENTED_EDGE('',*,*,#250,.T.);
#103=ORIENTED_EDGE('',*,*,#251,.T.);
#104=ORIENTED_EDGE('',*,*,#252,.T.);
#105=ORIENTED_EDGE('',*,*,#253,.T.);
#106=ORIENTED_EDGE('',*,*,#254,.F.);
#107=ORIENTED_EDGE('',*,*,#255,.F.);
#108=ORIENTED_EDGE('',*,*,#251,.F.);
#109=ORIENTED_EDGE('',*,*,#256,.T.);
#110=ORIENTED_EDGE('',*,*,#254,.T.);
#111=ORIENTED_EDGE('',*,*,#257,.F.);
#112=ORIENTED_EDGE('',*,*,#258,.F.);
#113=ORIENTED_EDGE('',*,*,#249,.T.);
#114=ORIENTED_EDGE('',*,*,#259,.T.);
#115=ORIENTED_EDGE('',*,*,#252,.F.);
#116=ORIENTED_EDGE('',*,*,#260,.F.);
#117=ORIENTED_EDGE('',*,*,#261,.T.);
#118=ORIENTED_EDGE('',*,*,#262,.T.);
#119=ORIENTED_EDGE('',*,*,#263,.F.);
#120=ORIENTED_EDGE('',*,*,#264,.F.);
#121=ORIENTED_EDGE('',*,*,#265,.T.);
#122=ORIENTED_EDGE('',*,*,#266,.T.);
#123=ORIENTED_EDGE('',*,*,#267,.T.);
#124=ORIENTED_EDGE('',*,*,#267,.F.);
#125=ORIENTED_EDGE('',*,*,#268,.T.);
#126=ORIENTED_EDGE('',*,*,#269,.T.);
#127=ORIENTED_EDGE('',*,*,#270,.F.);
#128=ORIENTED_EDGE('',*,*,#271,.F.);
#129=ORIENTED_EDGE('',*,*,#272,.T.);
#130=ORIENTED_EDGE('',*,*,#273,.T.);
#131=ORIENTED_EDGE('',*,*,#269,.F.);
#132=ORIENTED_EDGE('',*,*,#274,.T.);
#133=ORIENTED_EDGE('',*,*,#275,.F.);
#134=ORIENTED_EDGE('',*,*,#276,.F.);
#135=ORIENTED_EDGE('',*,*,#277,.T.);
#136=ORIENTED_EDGE('',*,*,#278,.T.);
#137=ORIENTED_EDGE('',*,*,#279,.T.);
#138=ORIENTED_EDGE('',*,*,#280,.F.);
#139=ORIENTED_EDGE('',*,*,#281,.T.);
#140=ORIENTED_EDGE('',*,*,#274,.F.);
#141=ORIENTED_EDGE('',*,*,#273,.F.);
#142=ORIENTED_EDGE('',*,*,#282,.T.);
#143=ORIENTED_EDGE('',*,*,#276,.T.);
#144=ORIENTED_EDGE('',*,*,#283,.F.);
#145=ORIENTED_EDGE('',*,*,#262,.F.);
#146=ORIENTED_EDGE('',*,*,#284,.T.);
#147=ORIENTED_EDGE('',*,*,#264,.T.);
#148=ORIENTED_EDGE('',*,*,#270,.T.);
#149=ORIENTED_EDGE('',*,*,#280,.T.);
#150=ORIENTED_EDGE('',*,*,#275,.T.);
#151=ORIENTED_EDGE('',*,*,#278,.F.);
#152=ORIENTED_EDGE('',*,*,#285,.T.);
#153=ORIENTED_EDGE('',*,*,#271,.T.);
#154=ORIENTED_EDGE('',*,*,#268,.F.);
#155=ORIENTED_EDGE('',*,*,#266,.F.);
#156=ORIENTED_EDGE('',*,*,#286,.T.);
#157=ORIENTED_EDGE('',*,*,#260,.T.);
#158=ORIENTED_EDGE('',*,*,#287,.T.);
#159=ORIENTED_EDGE('',*,*,#281,.F.);
#160=ORIENTED_EDGE('',*,*,#285,.F.);
#161=ORIENTED_EDGE('',*,*,#277,.F.);
#162=ORIENTED_EDGE('',*,*,#282,.F.);
#163=ORIENTED_EDGE('',*,*,#272,.F.);
#164=ORIENTED_EDGE('',*,*,#286,.F.);
#165=ORIENTED_EDGE('',*,*,#265,.F.);
#166=ORIENTED_EDGE('',*,*,#284,.F.);
#167=ORIENTED_EDGE('',*,*,#261,.F.);
#168=ORIENTED_EDGE('',*,*,#255,.T.);
#169=ORIENTED_EDGE('',*,*,#288,.F.);
#170=ORIENTED_EDGE('',*,*,#279,.F.);
#171=ORIENTED_EDGE('',*,*,#289,.T.);
#172=ORIENTED_EDGE('',*,*,#263,.T.);
#173=ORIENTED_EDGE('',*,*,#290,.F.);
#174=ORIENTED_EDGE('',*,*,#250,.F.);
#175=ORIENTED_EDGE('',*,*,#291,.T.);
#176=ORIENTED_EDGE('',*,*,#291,.F.);
#177=ORIENTED_EDGE('',*,*,#258,.T.);
#178=ORIENTED_EDGE('',*,*,#289,.F.);
#179=ORIENTED_EDGE('',*,*,#287,.F.);
#180=ORIENTED_EDGE('',*,*,#290,.T.);
#181=ORIENTED_EDGE('',*,*,#283,.T.);
#182=ORIENTED_EDGE('',*,*,#288,.T.);
#183=ORIENTED_EDGE('',*,*,#256,.F.);
#184=ORIENTED_EDGE('',*,*,#234,.T.);
#185=ORIENTED_EDGE('',*,*,#292,.F.);
#186=ORIENTED_EDGE('',*,*,#253,.F.);
#187=ORIENTED_EDGE('',*,*,#293,.T.);
#188=ORIENTED_EDGE('',*,*,#248,.T.);
#189=ORIENTED_EDGE('',*,*,#294,.F.);
#190=ORIENTED_EDGE('',*,*,#232,.F.);
#191=ORIENTED_EDGE('',*,*,#295,.T.);
#192=ORIENTED_EDGE('',*,*,#295,.F.);
#193=ORIENTED_EDGE('',*,*,#246,.F.);
#194=ORIENTED_EDGE('',*,*,#245,.T.);
#195=ORIENTED_EDGE('',*,*,#293,.F.);
#196=ORIENTED_EDGE('',*,*,#259,.F.);
#197=ORIENTED_EDGE('',*,*,#294,.T.);
#198=ORIENTED_EDGE('',*,*,#257,.T.);
#199=ORIENTED_EDGE('',*,*,#292,.T.);
#200=ORIENTED_EDGE('',*,*,#244,.F.);
#201=ORIENTED_EDGE('',*,*,#243,.T.);
#202=ORIENTED_EDGE('',*,*,#222,.T.);
#203=ORIENTED_EDGE('',*,*,#296,.F.);
#204=ORIENTED_EDGE('',*,*,#236,.F.);
#205=ORIENTED_EDGE('',*,*,#297,.T.);
#206=ORIENTED_EDGE('',*,*,#230,.T.);
#207=ORIENTED_EDGE('',*,*,#298,.F.);
#208=ORIENTED_EDGE('',*,*,#220,.F.);
#209=ORIENTED_EDGE('',*,*,#299,.T.);
#210=ORIENTED_EDGE('',*,*,#299,.F.);
#211=ORIENTED_EDGE('',*,*,#229,.T.);
#212=ORIENTED_EDGE('',*,*,#297,.F.);
#213=ORIENTED_EDGE('',*,*,#247,.F.);
#214=ORIENTED_EDGE('',*,*,#298,.T.);
#215=ORIENTED_EDGE('',*,*,#242,.T.);
#216=ORIENTED_EDGE('',*,*,#296,.T.);
#217=ORIENTED_EDGE('',*,*,#228,.F.);
#218=EDGE_CURVE('',#300,#301,#350,.T.);
#219=EDGE_CURVE('',#300,#302,#351,.F.);
#220=EDGE_CURVE('',#302,#303,#352,.T.);
#221=EDGE_CURVE('',#301,#303,#353,.F.);
#222=EDGE_CURVE('',#304,#305,#354,.T.);
#223=EDGE_CURVE('',#306,#304,#355,.F.);
#224=EDGE_CURVE('',#306,#307,#356,.T.);
#225=EDGE_CURVE('',#307,#305,#357,.F.);
#226=EDGE_CURVE('',#300,#306,#358,.F.);
#227=EDGE_CURVE('',#301,#307,#359,.T.);
#228=EDGE_CURVE('',#303,#305,#360,.T.);
#229=EDGE_CURVE('',#302,#304,#361,.T.);
#230=EDGE_CURVE('',#308,#309,#362,.T.);
#231=EDGE_CURVE('',#308,#310,#363,.F.);
#232=EDGE_CURVE('',#310,#311,#364,.T.);
#233=EDGE_CURVE('',#309,#311,#365,.F.);
#234=EDGE_CURVE('',#312,#313,#366,.F.);
#235=EDGE_CURVE('',#314,#312,#367,.F.);
#236=EDGE_CURVE('',#314,#315,#368,.T.);
#237=EDGE_CURVE('',#315,#313,#369,.F.);
#238=EDGE_CURVE('',#316,#316,#30,.T.);
#239=EDGE_CURVE('',#317,#317,#31,.T.);
#240=EDGE_CURVE('',#318,#318,#32,.T.);
#241=EDGE_CURVE('',#319,#319,#33,.T.);
#242=EDGE_CURVE('',#309,#315,#370,.F.);
#243=EDGE_CURVE('',#320,#311,#371,.F.);
#244=EDGE_CURVE('',#320,#313,#372,.T.);
#245=EDGE_CURVE('',#321,#312,#373,.T.);
#246=EDGE_CURVE('',#321,#310,#374,.F.);
#247=EDGE_CURVE('',#308,#314,#375,.F.);
#248=EDGE_CURVE('',#322,#323,#376,.T.);
#249=EDGE_CURVE('',#324,#322,#377,.T.);
#250=EDGE_CURVE('',#324,#325,#378,.T.);
#251=EDGE_CURVE('',#325,#323,#379,.T.);
#252=EDGE_CURVE('',#326,#327,#380,.T.);
#253=EDGE_CURVE('',#327,#328,#381,.F.);
#254=EDGE_CURVE('',#329,#328,#382,.T.);
#255=EDGE_CURVE('',#326,#329,#383,.T.);
#256=EDGE_CURVE('',#325,#329,#384,.T.);
#257=EDGE_CURVE('',#323,#328,#385,.F.);
#258=EDGE_CURVE('',#324,#326,#386,.T.);
#259=EDGE_CURVE('',#322,#327,#387,.F.);
#260=EDGE_CURVE('',#330,#331,#388,.T.);
#261=EDGE_CURVE('',#330,#332,#389,.T.);
#262=EDGE_CURVE('',#332,#333,#390,.T.);
#263=EDGE_CURVE('',#331,#333,#391,.T.);
#264=EDGE_CURVE('',#334,#335,#392,.T.);
#265=EDGE_CURVE('',#334,#336,#393,.T.);
#266=EDGE_CURVE('',#336,#337,#394,.T.);
#267=EDGE_CURVE('',#337,#335,#395,.T.);
#268=EDGE_CURVE('',#337,#338,#396,.F.);
#269=EDGE_CURVE('',#338,#339,#397,.T.);
#270=EDGE_CURVE('',#335,#339,#398,.T.);
#271=EDGE_CURVE('',#340,#338,#399,.T.);
#272=EDGE_CURVE('',#340,#341,#400,.T.);
#273=EDGE_CURVE('',#341,#339,#401,.T.);
#274=EDGE_CURVE('',#342,#342,#34,.T.);
#275=EDGE_CURVE('',#343,#343,#35,.T.);
#276=EDGE_CURVE('',#344,#345,#402,.T.);
#277=EDGE_CURVE('',#344,#346,#403,.T.);
#278=EDGE_CURVE('',#346,#347,#404,.T.);
#279=EDGE_CURVE('',#347,#345,#405,.F.);
#280=EDGE_CURVE('',#348,#348,#36,.T.);
#281=EDGE_CURVE('',#349,#349,#37,.T.);
#282=EDGE_CURVE('',#341,#344,#38,.T.);
#283=EDGE_CURVE('',#333,#345,#406,.F.);
#284=EDGE_CURVE('',#332,#334,#39,.T.);
#285=EDGE_CURVE('',#346,#340,#40,.F.);
#286=EDGE_CURVE('',#336,#330,#41,.F.);
#287=EDGE_CURVE('',#331,#347,#407,.F.);
#288=EDGE_CURVE('',#345,#329,#12,.T.);
#289=EDGE_CURVE('',#347,#326,#13,.T.);
#290=EDGE_CURVE('',#325,#333,#14,.T.);
#291=EDGE_CURVE('',#324,#331,#15,.T.);
#292=EDGE_CURVE('',#328,#313,#16,.T.);
#293=EDGE_CURVE('',#327,#312,#17,.T.);
#294=EDGE_CURVE('',#311,#323,#18,.T.);
#295=EDGE_CURVE('',#310,#322,#19,.T.);
#296=EDGE_CURVE('',#315,#305,#20,.T.);
#297=EDGE_CURVE('',#314,#304,#21,.T.);
#298=EDGE_CURVE('',#303,#309,#22,.T.);
#299=EDGE_CURVE('',#302,#308,#23,.T.);
#300=VERTEX_POINT('',#832);
#301=VERTEX_POINT('',#833);
#302=VERTEX_POINT('',#835);
#303=VERTEX_POINT('',#837);
#304=VERTEX_POINT('',#841);
#305=VERTEX_POINT('',#842);
#306=VERTEX_POINT('',#844);
#307=VERTEX_POINT('',#846);
#308=VERTEX_POINT('',#857);
#309=VERTEX_POINT('',#858);
#310=VERTEX_POINT('',#860);
#311=VERTEX_POINT('',#862);
#312=VERTEX_POINT('',#866);
#313=VERTEX_POINT('',#867);
#314=VERTEX_POINT('',#869);
#315=VERTEX_POINT('',#871);
#316=VERTEX_POINT('',#875);
#317=VERTEX_POINT('',#877);
#318=VERTEX_POINT('',#880);
#319=VERTEX_POINT('',#882);
#320=VERTEX_POINT('',#886);
#321=VERTEX_POINT('',#890);
#322=VERTEX_POINT('',#895);
#323=VERTEX_POINT('',#896);
#324=VERTEX_POINT('',#898);
#325=VERTEX_POINT('',#900);
#326=VERTEX_POINT('',#904);
#327=VERTEX_POINT('',#905);
#328=VERTEX_POINT('',#907);
#329=VERTEX_POINT('',#909);
#330=VERTEX_POINT('',#919);
#331=VERTEX_POINT('',#920);
#332=VERTEX_POINT('',#922);
#333=VERTEX_POINT('',#924);
#334=VERTEX_POINT('',#928);
#335=VERTEX_POINT('',#929);
#336=VERTEX_POINT('',#931);
#337=VERTEX_POINT('',#933);
#338=VERTEX_POINT('',#937);
#339=VERTEX_POINT('',#939);
#340=VERTEX_POINT('',#943);
#341=VERTEX_POINT('',#945);
#342=VERTEX_POINT('',#949);
#343=VERTEX_POINT('',#951);
#344=VERTEX_POINT('',#954);
#345=VERTEX_POINT('',#955);
#346=VERTEX_POINT('',#957);
#347=VERTEX_POINT('',#959);
#348=VERTEX_POINT('',#963);
#349=VERTEX_POINT('',#965);
#350=LINE('',#831,#408);
#351=LINE('',#834,#409);
#352=LINE('',#836,#410);
#353=LINE('',#838,#411);
#354=LINE('',#840,#412);
#355=LINE('',#843,#413);
#356=LINE('',#845,#414);
#357=LINE('',#847,#415);
#358=LINE('',#849,#416);
#359=LINE('',#850,#417);
#360=LINE('',#852,#418);
#361=LINE('',#854,#419);
#362=LINE('',#856,#420);
#363=LINE('',#859,#421);
#364=LINE('',#861,#422);
#365=LINE('',#863,#423);
#366=LINE('',#865,#424);
#367=LINE('',#868,#425);
#368=LINE('',#870,#426);
#369=LINE('',#872,#427);
#370=LINE('',#884,#428);
#371=LINE('',#885,#429);
#372=LINE('',#887,#430);
#373=LINE('',#889,#431);
#374=LINE('',#891,#432);
#375=LINE('',#892,#433);
#376=LINE('',#894,#434);
#377=LINE('',#897,#435);
#378=LINE('',#899,#436);
#379=LINE('',#901,#437);
#380=LINE('',#903,#438);
#381=LINE('',#906,#439);
#382=LINE('',#908,#440);
#383=LINE('',#910,#441);
#384=LINE('',#912,#442);
#385=LINE('',#913,#443);
#386=LINE('',#915,#444);
#387=LINE('',#916,#445);
#388=LINE('',#918,#446);
#389=LINE('',#921,#447);
#390=LINE('',#923,#448);
#391=LINE('',#925,#449);
#392=LINE('',#927,#450);
#393=LINE('',#930,#451);
#394=LINE('',#932,#452);
#395=LINE('',#934,#453);
#396=LINE('',#936,#454);
#397=LINE('',#938,#455);
#398=LINE('',#940,#456);
#399=LINE('',#942,#457);
#400=LINE('',#944,#458);
#401=LINE('',#946,#459);
#402=LINE('',#953,#460);
#403=LINE('',#956,#461);
#404=LINE('',#958,#462);
#405=LINE('',#960,#463);
#406=LINE('',#968,#464);
#407=LINE('',#973,#465);
#408=VECTOR('',#685,1.);
#409=VECTOR('',#686,1.);
#410=VECTOR('',#687,1.);
#411=VECTOR('',#688,1.);
#412=VECTOR('',#691,1.);
#413=VECTOR('',#692,1.);
#414=VECTOR('',#693,1.);
#415=VECTOR('',#694,1.);
#416=VECTOR('',#697,1.);
#417=VECTOR('',#698,1.);
#418=VECTOR('',#701,1.);
#419=VECTOR('',#704,1.);
#420=VECTOR('',#707,1.);
#421=VECTOR('',#708,1.);
#422=VECTOR('',#709,1.);
#423=VECTOR('',#710,1.);
#424=VECTOR('',#713,1.);
#425=VECTOR('',#714,1.);
#426=VECTOR('',#715,1.);
#427=VECTOR('',#716,1.);
#428=VECTOR('',#731,1.);
#429=VECTOR('',#732,1.);
#430=VECTOR('',#733,1.);
#431=VECTOR('',#736,1.);
#432=VECTOR('',#737,1.);
#433=VECTOR('',#738,1.);
#434=VECTOR('',#741,1.);
#435=VECTOR('',#742,1.);
#436=VECTOR('',#743,1.);
#437=VECTOR('',#744,1.);
#438=VECTOR('',#747,1.);
#439=VECTOR('',#748,1.);
#440=VECTOR('',#749,1.);
#441=VECTOR('',#750,1.);
#442=VECTOR('',#753,1.);
#443=VECTOR('',#754,1.);
#444=VECTOR('',#757,1.);
#445=VECTOR('',#758,1.);
#446=VECTOR('',#761,1.);
#447=VECTOR('',#762,1.);
#448=VECTOR('',#763,1.);
#449=VECTOR('',#764,1.);
#450=VECTOR('',#767,1.);
#451=VECTOR('',#768,1.);
#452=VECTOR('',#769,1.);
#453=VECTOR('',#770,1.);
#454=VECTOR('',#773,1.);
#455=VECTOR('',#774,1.);
#456=VECTOR('',#775,1.);
#457=VECTOR('',#778,1.);
#458=VECTOR('',#779,1.);
#459=VECTOR('',#780,1.);
#460=VECTOR('',#789,1.);
#461=VECTOR('',#790,1.);
#462=VECTOR('',#791,1.);
#463=VECTOR('',#792,1.);
#464=VECTOR('',#803,1.);
#465=VECTOR('',#812,1.);
#466=EDGE_LOOP('',(#54,#55,#56,#57));
#467=EDGE_LOOP('',(#58,#59,#60,#61));
#468=EDGE_LOOP('',(#62,#63,#64,#65));
#469=EDGE_LOOP('',(#66,#67,#68,#69));
#470=EDGE_LOOP('',(#70,#71,#72,#73));
#471=EDGE_LOOP('',(#74,#75,#76,#77));
#472=EDGE_LOOP('',(#78,#79,#80,#81));
#473=EDGE_LOOP('',(#82));
#474=EDGE_LOOP('',(#83));
#475=EDGE_LOOP('',(#84));
#476=EDGE_LOOP('',(#85));
#477=EDGE_LOOP('',(#86));
#478=EDGE_LOOP('',(#87,#88,#89,#90,#91));
#479=EDGE_LOOP('',(#92));
#480=EDGE_LOOP('',(#93));
#481=EDGE_LOOP('',(#94,#95,#96,#97,#98));
#482=EDGE_LOOP('',(#99));
#483=EDGE_LOOP('',(#100,#101,#102,#103));
#484=EDGE_LOOP('',(#104,#105,#106,#107));
#485=EDGE_LOOP('',(#108,#109,#110,#111));
#486=EDGE_LOOP('',(#112,#113,#114,#115));
#487=EDGE_LOOP('',(#116,#117,#118,#119));
#488=EDGE_LOOP('',(#120,#121,#122,#123));
#489=EDGE_LOOP('',(#124,#125,#126,#127));
#490=EDGE_LOOP('',(#128,#129,#130,#131));
#491=EDGE_LOOP('',(#132));
#492=EDGE_LOOP('',(#133));
#493=EDGE_LOOP('',(#134,#135,#136,#137));
#494=EDGE_LOOP('',(#138));
#495=EDGE_LOOP('',(#139));
#496=EDGE_LOOP('',(#140));
#497=EDGE_LOOP('',(#141,#142,#143,#144,#145,#146,#147,#148));
#498=EDGE_LOOP('',(#149));
#499=EDGE_LOOP('',(#150));
#500=EDGE_LOOP('',(#151,#152,#153,#154,#155,#156,#157,#158));
#501=EDGE_LOOP('',(#159));
#502=EDGE_LOOP('',(#160,#161,#162,#163));
#503=EDGE_LOOP('',(#164,#165,#166,#167));
#504=EDGE_LOOP('',(#168,#169,#170,#171));
#505=EDGE_LOOP('',(#172,#173,#174,#175));
#506=EDGE_LOOP('',(#176,#177,#178,#179));
#507=EDGE_LOOP('',(#180,#181,#182,#183));
#508=EDGE_LOOP('',(#184,#185,#186,#187));
#509=EDGE_LOOP('',(#188,#189,#190,#191));
#510=EDGE_LOOP('',(#192,#193,#194,#195,#196));
#511=EDGE_LOOP('',(#197,#198,#199,#200,#201));
#512=EDGE_LOOP('',(#202,#203,#204,#205));
#513=EDGE_LOOP('',(#206,#207,#208,#209));
#514=EDGE_LOOP('',(#210,#211,#212,#213));
#515=EDGE_LOOP('',(#214,#215,#216,#217));
#516=FACE_BOUND('',#466,.T.);
#517=FACE_BOUND('',#467,.T.);
#518=FACE_BOUND('',#468,.T.);
#519=FACE_BOUND('',#469,.T.);
#520=FACE_BOUND('',#470,.T.);
#521=FACE_BOUND('',#471,.T.);
#522=FACE_BOUND('',#472,.T.);
#523=FACE_BOUND('',#473,.T.);
#524=FACE_BOUND('',#474,.T.);
#525=FACE_BOUND('',#475,.T.);
#526=FACE_BOUND('',#476,.T.);
#527=FACE_BOUND('',#477,.T.);
#528=FACE_BOUND('',#478,.T.);
#529=FACE_BOUND('',#479,.T.);
#530=FACE_BOUND('',#480,.T.);
#531=FACE_BOUND('',#481,.T.);
#532=FACE_BOUND('',#482,.T.);
#533=FACE_BOUND('',#483,.T.);
#534=FACE_BOUND('',#484,.T.);
#535=FACE_BOUND('',#485,.T.);
#536=FACE_BOUND('',#486,.T.);
#537=FACE_BOUND('',#487,.T.);
#538=FACE_BOUND('',#488,.T.);
#539=FACE_BOUND('',#489,.T.);
#540=FACE_BOUND('',#490,.T.);
#541=FACE_BOUND('',#491,.T.);
#542=FACE_BOUND('',#492,.T.);
#543=FACE_BOUND('',#493,.T.);
#544=FACE_BOUND('',#494,.T.);
#545=FACE_BOUND('',#495,.T.);
#546=FACE_BOUND('',#496,.T.);
#547=FACE_BOUND('',#497,.T.);
#548=FACE_BOUND('',#498,.T.);
#549=FACE_BOUND('',#499,.T.);
#550=FACE_BOUND('',#500,.T.);
#551=FACE_BOUND('',#501,.T.);
#552=FACE_BOUND('',#502,.T.);
#553=FACE_BOUND('',#503,.T.);
#554=FACE_BOUND('',#504,.T.);
#555=FACE_BOUND('',#505,.T.);
#556=FACE_BOUND('',#506,.T.);
#557=FACE_BOUND('',#507,.T.);
#558=FACE_BOUND('',#508,.T.);
#559=FACE_BOUND('',#509,.T.);
#560=FACE_BOUND('',#510,.T.);
#561=FACE_BOUND('',#511,.T.);
#562=FACE_BOUND('',#512,.T.);
#563=FACE_BOUND('',#513,.T.);
#564=FACE_BOUND('',#514,.T.);
#565=FACE_BOUND('',#515,.T.);
#566=PLANE('',#637);
#567=PLANE('',#638);
#568=PLANE('',#639);
#569=PLANE('',#640);
#570=PLANE('',#641);
#571=PLANE('',#642);
#572=PLANE('',#643);
#573=PLANE('',#650);
#574=PLANE('',#651);
#575=PLANE('',#652);
#576=PLANE('',#653);
#577=PLANE('',#654);
#578=PLANE('',#655);
#579=PLANE('',#656);
#580=PLANE('',#657);
#581=PLANE('',#658);
#582=PLANE('',#659);
#583=PLANE('',#663);
#584=PLANE('',#667);
#585=PLANE('',#670);
#586=ADVANCED_FACE('',(#516),#566,.F.);
#587=ADVANCED_FACE('',(#517),#567,.T.);
#588=ADVANCED_FACE('',(#518),#568,.F.);
#589=ADVANCED_FACE('',(#519),#569,.T.);
#590=ADVANCED_FACE('',(#520),#570,.F.);
#591=ADVANCED_FACE('',(#521),#571,.F.);
#592=ADVANCED_FACE('',(#522),#572,.F.);
#593=ADVANCED_FACE('',(#523,#524),#42,.F.);
#594=ADVANCED_FACE('',(#525,#526),#43,.F.);
#595=ADVANCED_FACE('',(#527,#528,#529),#573,.T.);
#596=ADVANCED_FACE('',(#530,#531,#532),#574,.F.);
#597=ADVANCED_FACE('',(#533),#575,.F.);
#598=ADVANCED_FACE('',(#534),#576,.T.);
#599=ADVANCED_FACE('',(#535),#577,.T.);
#600=ADVANCED_FACE('',(#536),#578,.F.);
#601=ADVANCED_FACE('',(#537),#579,.F.);
#602=ADVANCED_FACE('',(#538),#580,.T.);
#603=ADVANCED_FACE('',(#539),#581,.T.);
#604=ADVANCED_FACE('',(#540),#582,.F.);
#605=ADVANCED_FACE('',(#541,#542),#44,.F.);
#606=ADVANCED_FACE('',(#543),#583,.T.);
#607=ADVANCED_FACE('',(#544,#545),#45,.F.);
#608=ADVANCED_FACE('',(#546,#547,#548),#584,.T.);
#609=ADVANCED_FACE('',(#549,#550,#551),#585,.F.);
#610=ADVANCED_FACE('',(#552),#46,.T.);
#611=ADVANCED_FACE('',(#553),#47,.T.);
#612=ADVANCED_FACE('',(#554),#24,.F.);
#613=ADVANCED_FACE('',(#555),#25,.F.);
#614=ADVANCED_FACE('',(#556),#48,.T.);
#615=ADVANCED_FACE('',(#557),#49,.F.);
#616=ADVANCED_FACE('',(#558),#26,.F.);
#617=ADVANCED_FACE('',(#559),#27,.F.);
#618=ADVANCED_FACE('',(#560),#50,.T.);
#619=ADVANCED_FACE('',(#561),#51,.F.);
#620=ADVANCED_FACE('',(#562),#28,.F.);
#621=ADVANCED_FACE('',(#563),#29,.F.);
#622=ADVANCED_FACE('',(#564),#52,.T.);
#623=ADVANCED_FACE('',(#565),#53,.F.);
#624=CLOSED_SHELL('',(#586,#587,#588,#589,#590,#591,#592,#593,#594,#595,
#596,#597,#598,#599,#600,#601,#602,#603,#604,#605,#606,#607,#608,#609,#610,
#611,#612,#613,#614,#615,#616,#617,#618,#619,#620,#621,#622,#623));
#625=STYLED_ITEM('',(#626),#633);
#626=PRESENTATION_STYLE_ASSIGNMENT((#627));
#627=SURFACE_STYLE_USAGE(.BOTH.,#628);
#628=SURFACE_SIDE_STYLE('',(#629));
#629=SURFACE_STYLE_FILL_AREA(#630);
#630=FILL_AREA_STYLE('',(#631));
#631=FILL_AREA_STYLE_COLOUR('',#632);
#632=COLOUR_RGB('',0.262745098039216,0.258823529411765,0.258823529411765);
#633=MANIFOLD_SOLID_BREP('Part 8',#624);
#634=SHAPE_DEFINITION_REPRESENTATION(#1204,#635);
#635=SHAPE_REPRESENTATION('Part 8',(#636),#1199);
#636=AXIS2_PLACEMENT_3D('',#829,#681,#682);
#637=AXIS2_PLACEMENT_3D('',#830,#683,#684);
#638=AXIS2_PLACEMENT_3D('',#839,#689,#690);
#639=AXIS2_PLACEMENT_3D('',#848,#695,#696);
#640=AXIS2_PLACEMENT_3D('',#851,#699,#700);
#641=AXIS2_PLACEMENT_3D('',#853,#702,#703);
#642=AXIS2_PLACEMENT_3D('',#855,#705,#706);
#643=AXIS2_PLACEMENT_3D('',#864,#711,#712);
#644=AXIS2_PLACEMENT_3D('',#873,#717,#718);
#645=AXIS2_PLACEMENT_3D('',#874,#719,#720);
#646=AXIS2_PLACEMENT_3D('',#876,#721,#722);
#647=AXIS2_PLACEMENT_3D('',#878,#723,#724);
#648=AXIS2_PLACEMENT_3D('',#879,#725,#726);
#649=AXIS2_PLACEMENT_3D('',#881,#727,#728);
#650=AXIS2_PLACEMENT_3D('',#883,#729,#730);
#651=AXIS2_PLACEMENT_3D('',#888,#734,#735);
#652=AXIS2_PLACEMENT_3D('',#893,#739,#740);
#653=AXIS2_PLACEMENT_3D('',#902,#745,#746);
#654=AXIS2_PLACEMENT_3D('',#911,#751,#752);
#655=AXIS2_PLACEMENT_3D('',#914,#755,#756);
#656=AXIS2_PLACEMENT_3D('',#917,#759,#760);
#657=AXIS2_PLACEMENT_3D('',#926,#765,#766);
#658=AXIS2_PLACEMENT_3D('',#935,#771,#772);
#659=AXIS2_PLACEMENT_3D('',#941,#776,#777);
#660=AXIS2_PLACEMENT_3D('',#947,#781,#782);
#661=AXIS2_PLACEMENT_3D('',#948,#783,#784);
#662=AXIS2_PLACEMENT_3D('',#950,#785,#786);
#663=AXIS2_PLACEMENT_3D('',#952,#787,#788);
#664=AXIS2_PLACEMENT_3D('',#961,#793,#794);
#665=AXIS2_PLACEMENT_3D('',#962,#795,#796);
#666=AXIS2_PLACEMENT_3D('',#964,#797,#798);
#667=AXIS2_PLACEMENT_3D('',#966,#799,#800);
#668=AXIS2_PLACEMENT_3D('',#967,#801,#802);
#669=AXIS2_PLACEMENT_3D('',#969,#804,#805);
#670=AXIS2_PLACEMENT_3D('',#970,#806,#807);
#671=AXIS2_PLACEMENT_3D('',#971,#808,#809);
#672=AXIS2_PLACEMENT_3D('',#972,#810,#811);
#673=AXIS2_PLACEMENT_3D('',#974,#813,#814);
#674=AXIS2_PLACEMENT_3D('',#975,#815,#816);
#675=AXIS2_PLACEMENT_3D('',#1076,#817,#818);
#676=AXIS2_PLACEMENT_3D('',#1077,#819,#820);
#677=AXIS2_PLACEMENT_3D('',#1162,#821,#822);
#678=AXIS2_PLACEMENT_3D('',#1163,#823,#824);
#679=AXIS2_PLACEMENT_3D('',#1196,#825,#826);
#680=AXIS2_PLACEMENT_3D('',#1197,#827,#828);
#681=DIRECTION('',(0.,0.,1.));
#682=DIRECTION('',(1.,0.,0.));
#683=DIRECTION('',(-0.758154787546286,-0.218593858581261,-0.614343587181638));
#684=DIRECTION('',(-0.652074626189861,0.254154929137427,0.714285624855004));
#685=DIRECTION('',(0.,0.942136931122916,-0.335228284925802));
#686=DIRECTION('',(-0.652074626189861,0.254154929137427,0.714285624855004));
#687=DIRECTION('',(-3.66093785484859E-17,0.942136931122916,-0.335228284925802));
#688=DIRECTION('',(-0.652074626189861,0.254154929137427,0.714285624855004));
#689=DIRECTION('',(-0.758154787546286,0.218593858581261,0.614343587181638));
#690=DIRECTION('',(0.652074626189861,0.254154929137427,0.714285624855004));
#691=DIRECTION('',(3.66093785484859E-17,0.942136931122916,-0.335228284925802));
#692=DIRECTION('',(0.652074626189861,0.254154929137427,0.714285624855004));
#693=DIRECTION('',(0.,0.942136931122916,-0.335228284925802));
#694=DIRECTION('',(0.652074626189861,0.254154929137427,0.714285624855004));
#695=DIRECTION('',(0.,-0.335228284925802,-0.942136931122916));
#696=DIRECTION('',(-1.,0.,0.));
#697=DIRECTION('',(1.,0.,0.));
#698=DIRECTION('',(-1.,0.,0.));
#699=DIRECTION('',(0.,0.942136931122916,-0.335228284925802));
#700=DIRECTION('',(0.,0.335228284925802,0.942136931122916));
#701=DIRECTION('',(-1.,0.,0.));
#702=DIRECTION('',(0.,0.942136931122916,-0.335228284925802));
#703=DIRECTION('',(0.,0.335228284925802,0.942136931122916));
#704=DIRECTION('',(-1.,0.,0.));
#705=DIRECTION('',(-0.998326203360434,0.,0.0578341740145156));
#706=DIRECTION('',(0.0578341740145156,0.,0.998326203360434));
#707=DIRECTION('',(0.,1.,0.));
#708=DIRECTION('',(0.0578341740145156,0.,0.998326203360434));
#709=DIRECTION('',(0.,1.,0.));
#710=DIRECTION('',(0.0578341740145156,0.,0.998326203360434));
#711=DIRECTION('',(0.998326203360434,0.,0.0578341740145156));
#712=DIRECTION('',(0.0578341740145156,0.,-0.998326203360434));
#713=DIRECTION('',(0.,-1.,0.));
#714=DIRECTION('',(-0.0578341740145156,0.,0.998326203360434));
#715=DIRECTION('',(0.,1.,0.));
#716=DIRECTION('',(-0.0578341740145156,0.,0.998326203360434));
#717=DIRECTION('',(0.,1.,0.));
#718=DIRECTION('',(0.,0.,1.));
#719=DIRECTION('',(0.,1.,0.));
#720=DIRECTION('',(0.,0.,1.));
#721=DIRECTION('',(0.,1.,0.));
#722=DIRECTION('',(0.,0.,1.));
#723=DIRECTION('',(0.,1.,0.));
#724=DIRECTION('',(0.,0.,1.));
#725=DIRECTION('',(0.,-1.,0.));
#726=DIRECTION('',(0.,0.,1.));
#727=DIRECTION('',(0.,-1.,0.));
#728=DIRECTION('',(0.,0.,-1.));
#729=DIRECTION('',(0.,1.,0.));
#730=DIRECTION('',(0.,0.,1.));
#731=DIRECTION('',(1.,0.,0.));
#732=DIRECTION('',(-1.,0.,0.));
#733=DIRECTION('',(-1.,0.,0.));
#734=DIRECTION('',(0.,1.,0.));
#735=DIRECTION('',(0.,0.,1.));
#736=DIRECTION('',(-1.,0.,0.));
#737=DIRECTION('',(-1.,0.,0.));
#738=DIRECTION('',(1.,0.,0.));
#739=DIRECTION('',(-0.928671405365197,0.262268393880229,-0.262268393880229));
#740=DIRECTION('',(-0.370903519607229,-0.656669848227772,0.656669848227772));
#741=DIRECTION('',(-2.13182638175908E-18,0.707106781186548,0.707106781186547));
#742=DIRECTION('',(-0.370903519607229,-0.656669848227772,0.656669848227772));
#743=DIRECTION('',(-2.13182638175908E-18,0.707106781186548,0.707106781186547));
#744=DIRECTION('',(-0.370903519607229,-0.656669848227772,0.656669848227772));
#745=DIRECTION('',(-0.928671405365197,-0.262268393880229,0.262268393880229));
#746=DIRECTION('',(0.370903519607229,-0.656669848227772,0.656669848227772));
#747=DIRECTION('',(0.370903519607229,-0.656669848227772,0.656669848227772));
#748=DIRECTION('',(2.13182638175908E-18,-0.707106781186548,-0.707106781186547));
#749=DIRECTION('',(0.370903519607229,-0.656669848227772,0.656669848227772));
#750=DIRECTION('',(-2.13182638175908E-18,0.707106781186548,0.707106781186547));
#751=DIRECTION('',(0.,0.707106781186548,0.707106781186547));
#752=DIRECTION('',(0.,-0.707106781186547,0.707106781186548));
#753=DIRECTION('',(-1.,0.,0.));
#754=DIRECTION('',(1.,0.,0.));
#755=DIRECTION('',(0.,0.707106781186548,0.707106781186547));
#756=DIRECTION('',(0.,-0.707106781186547,0.707106781186548));
#757=DIRECTION('',(-1.,0.,0.));
#758=DIRECTION('',(1.,0.,0.));
#759=DIRECTION('',(-0.859210698880098,0.499494424203198,-0.110735247865757));
#760=DIRECTION('',(-0.511621906225657,-0.838843974591367,0.185967231957096));
#761=DIRECTION('',(-0.511621906225657,-0.838843974591367,0.185967231957096));
#762=DIRECTION('',(0.,0.216439613938103,0.976296007119933));
#763=DIRECTION('',(-0.511621906225657,-0.838843974591367,0.185967231957096));
#764=DIRECTION('',(2.27399873988902E-18,0.216439613938103,0.976296007119933));
#765=DIRECTION('',(0.984807753012208,0.169532022499877,-0.0375843445352856));
#766=DIRECTION('',(-0.17364817766693,0.961463877046572,-0.213151409865213));
#767=DIRECTION('',(-0.17364817766693,0.961463877046572,-0.213151409865213));
#768=DIRECTION('',(-6.83347651389699E-18,-0.216439613938103,-0.976296007119933));
#769=DIRECTION('',(-0.17364817766693,0.961463877046572,-0.213151409865213));
#770=DIRECTION('',(0.,0.216439613938103,0.976296007119933));
#771=DIRECTION('',(0.,0.976296007119933,-0.216439613938103));
#772=DIRECTION('',(-1.,0.,0.));
#773=DIRECTION('',(1.,0.,0.));
#774=DIRECTION('',(0.,0.216439613938103,0.976296007119933));
#775=DIRECTION('',(-1.,0.,0.));
#776=DIRECTION('',(0.984807753012208,-0.169532022499877,0.0375843445352856));
#777=DIRECTION('',(0.17364817766693,0.961463877046572,-0.213151409865213));
#778=DIRECTION('',(0.17364817766693,0.961463877046572,-0.213151409865213));
#779=DIRECTION('',(-6.83347651389699E-18,0.216439613938103,0.976296007119933));
#780=DIRECTION('',(0.17364817766693,0.961463877046572,-0.213151409865213));
#781=DIRECTION('',(0.,0.216439613938103,0.976296007119933));
#782=DIRECTION('',(0.,-0.976296007119933,0.216439613938103));
#783=DIRECTION('',(0.,0.216439613938103,0.976296007119933));
#784=DIRECTION('',(0.,-0.976296007119933,0.216439613938103));
#785=DIRECTION('',(0.,0.216439613938103,0.976296007119933));
#786=DIRECTION('',(0.,-0.976296007119933,0.216439613938103));
#787=DIRECTION('',(-0.859210698880098,-0.499494424203198,0.110735247865757));
#788=DIRECTION('',(0.511621906225657,-0.838843974591367,0.185967231957096));
#789=DIRECTION('',(0.511621906225657,-0.838843974591367,0.185967231957096));
#790=DIRECTION('',(0.,-0.216439613938103,-0.976296007119933));
#791=DIRECTION('',(0.511621906225657,-0.838843974591367,0.185967231957096));
#792=DIRECTION('',(2.27399873988902E-18,-0.216439613938103,-0.976296007119933));
#793=DIRECTION('',(0.,0.216439613938103,0.976296007119933));
#794=DIRECTION('',(0.,-0.976296007119933,0.216439613938103));
#795=DIRECTION('',(0.,-0.216439613938103,-0.976296007119933));
#796=DIRECTION('',(0.,-0.976296007119933,0.216439613938103));
#797=DIRECTION('',(0.,-0.216439613938103,-0.976296007119933));
#798=DIRECTION('',(0.,0.976296007119933,-0.216439613938103));
#799=DIRECTION('',(0.,0.216439613938103,0.976296007119933));
#800=DIRECTION('',(0.,-0.976296007119933,0.216439613938103));
#801=DIRECTION('',(0.,0.216439613938103,0.976296007119933));
#802=DIRECTION('',(0.,-0.976296007119933,0.216439613938103));
#803=DIRECTION('',(1.,0.,0.));
#804=DIRECTION('',(0.,0.216439613938103,0.976296007119933));
#805=DIRECTION('',(0.,-0.976296007119933,0.216439613938103));
#806=DIRECTION('',(0.,0.216439613938103,0.976296007119933));
#807=DIRECTION('',(0.,-0.976296007119933,0.216439613938103));
#808=DIRECTION('',(0.,0.216439613938103,0.976296007119933));
#809=DIRECTION('',(0.,-0.976296007119933,0.216439613938103));
#810=DIRECTION('',(0.,0.216439613938103,0.976296007119933));
#811=DIRECTION('',(0.,-0.976296007119933,0.216439613938103));
#812=DIRECTION('',(1.,0.,0.));
#813=DIRECTION('',(1.82588641171605E-17,-0.216439613938103,-0.976296007119933));
#814=DIRECTION('',(0.,0.976296007119933,-0.216439613938103));
#815=DIRECTION('',(-2.56294316853875E-18,-0.216439613938103,-0.976296007119933));
#816=DIRECTION('',(0.,0.976296007119933,-0.216439613938103));
#817=DIRECTION('',(-1.,0.,1.39719465593542E-17));
#818=DIRECTION('',(-1.22495793779013E-17,-0.480988768919388,-0.876726755707508));
#819=DIRECTION('',(-1.,0.,1.39719465593542E-17));
#820=DIRECTION('',(-1.22495793779013E-17,-0.480988768919388,-0.876726755707508));
#821=DIRECTION('',(-1.,0.,0.));
#822=DIRECTION('',(0.,-0.923879532511287,-0.38268343236509));
#823=DIRECTION('',(-1.,0.,0.));
#824=DIRECTION('',(0.,-0.923879532511287,-0.38268343236509));
#825=DIRECTION('',(-1.,0.,0.));
#826=DIRECTION('',(0.,-0.985428062093554,0.170092723061695));
#827=DIRECTION('',(-1.,0.,0.));
#828=DIRECTION('',(0.,-0.985428062093554,0.170092723061695));
#829=CARTESIAN_POINT('',(0.,0.,0.));
#830=CARTESIAN_POINT('',(0.015176534646617,0.0386933080135234,0.0310616824876111));
#831=CARTESIAN_POINT('',(0.0228599411355701,0.0356985961304001,0.0226452427358534));
#832=CARTESIAN_POINT('',(0.0228599411355701,0.0347564591992773,0.0229804710207793));
#833=CARTESIAN_POINT('',(0.0228599411355701,0.0356985961304001,0.0226452427358534));
#834=CARTESIAN_POINT('',(0.015176534646617,0.0377511710824005,0.0313969107725369));
#835=CARTESIAN_POINT('',(0.028736239952592,0.0324660920396821,0.0165435455466555));
#836=CARTESIAN_POINT('',(0.028736239952592,0.033408228970805,0.0162083172617297));
#837=CARTESIAN_POINT('',(0.028736239952592,0.033408228970805,0.0162083172617297));
#838=CARTESIAN_POINT('',(0.015176534646617,0.0386933080135234,0.0310616824876111));
#839=CARTESIAN_POINT('',(-0.015176534646617,0.0386933080135234,0.0310616824876111));
#840=CARTESIAN_POINT('',(-0.028736239952592,0.033408228970805,0.0162083172617297));
#841=CARTESIAN_POINT('',(-0.028736239952592,0.0324660920396821,0.0165435455466555));
#842=CARTESIAN_POINT('',(-0.028736239952592,0.033408228970805,0.0162083172617297));
#843=CARTESIAN_POINT('',(-0.015176534646617,0.0377511710824005,0.0313969107725369));
#844=CARTESIAN_POINT('',(-0.0228599411355701,0.0347564591992773,0.0229804710207793));
#845=CARTESIAN_POINT('',(-0.0228599411355701,0.0356985961304001,0.0226452427358534));
#846=CARTESIAN_POINT('',(-0.0228599411355701,0.0356985961304001,0.0226452427358534));
#847=CARTESIAN_POINT('',(-0.015176534646617,0.0386933080135234,0.0310616824876111));
#848=CARTESIAN_POINT('',(0.,0.0356985961304001,0.0226452427358534));
#849=CARTESIAN_POINT('',(0.,0.0347564591992773,0.0229804710207793));
#850=CARTESIAN_POINT('',(0.,0.0356985961304001,0.0226452427358534));
#851=CARTESIAN_POINT('',(0.,0.0343175560921605,0.0187639210160199));
#852=CARTESIAN_POINT('',(0.,0.033408228970805,0.0162083172617297));
#853=CARTESIAN_POINT('',(0.,0.0333754191610375,0.0190991493009458));
#854=CARTESIAN_POINT('',(0.,0.0324660920396821,0.0165435455466555));
#855=CARTESIAN_POINT('',(0.0290262867734987,0.0331767766952967,0.0105403352659912));
#856=CARTESIAN_POINT('',(0.0292769588006881,0.0331767766952967,0.0148674041220265));
#857=CARTESIAN_POINT('',(0.0292769588006882,0.0321767766952967,0.0148674041220265));
#858=CARTESIAN_POINT('',(0.0292769588006882,0.0331767766952967,0.0148674041220265));
#859=CARTESIAN_POINT('',(0.0290262867734987,0.0321767766952967,0.0105403352659912));
#860=CARTESIAN_POINT('',(0.0290473947655083,0.0321767766952967,0.0109046987566545));
#861=CARTESIAN_POINT('',(0.0290473947655083,0.0331767766952967,0.0109046987566545));
#862=CARTESIAN_POINT('',(0.0290473947655083,0.0331767766952967,0.0109046987566545));
#863=CARTESIAN_POINT('',(0.0290262867734987,0.0331767766952967,0.0105403352659912));
#864=CARTESIAN_POINT('',(-0.0290262867734987,0.0331767766952967,0.0105403352659912));
#865=CARTESIAN_POINT('',(-0.0290473947655083,0.0331767766952967,0.0109046987566545));
#866=CARTESIAN_POINT('',(-0.0290473947655083,0.0321767766952967,0.0109046987566545));
#867=CARTESIAN_POINT('',(-0.0290473947655083,0.0331767766952967,0.0109046987566545));
#868=CARTESIAN_POINT('',(-0.0290262867734987,0.0321767766952967,0.0105403352659912));
#869=CARTESIAN_POINT('',(-0.0292769588006882,0.0321767766952967,0.0148674041220265));
#870=CARTESIAN_POINT('',(-0.0292769588006882,0.0331767766952967,0.0148674041220265));
#871=CARTESIAN_POINT('',(-0.0292769588006882,0.0331767766952967,0.0148674041220265));
#872=CARTESIAN_POINT('',(-0.0290262867734987,0.0331767766952967,0.0105403352659912));
#873=CARTESIAN_POINT('',(-0.01,0.0331767766952967,0.012312238122948));
#874=CARTESIAN_POINT('',(-0.01,0.0331767766952967,0.012312238122948));
#875=CARTESIAN_POINT('',(-0.01,0.0331767766952967,0.013312238122948));
#876=CARTESIAN_POINT('',(-0.01,0.0321767766952967,0.012312238122948));
#877=CARTESIAN_POINT('',(-0.01,0.0321767766952967,0.013312238122948));
#878=CARTESIAN_POINT('',(0.01,0.0331767766952967,0.012312238122948));
#879=CARTESIAN_POINT('',(0.01,0.0331767766952967,0.012312238122948));
#880=CARTESIAN_POINT('',(0.01,0.0331767766952967,0.013312238122948));
#881=CARTESIAN_POINT('',(0.01,0.0321767766952967,0.012312238122948));
#882=CARTESIAN_POINT('',(0.01,0.0321767766952967,0.011312238122948));
#883=CARTESIAN_POINT('',(0.,0.0331767766952967,0.0122218611185664));
#884=CARTESIAN_POINT('',(0.,0.0331767766952967,0.0148674041220265));
#885=CARTESIAN_POINT('',(0.,0.0331767766952967,0.0109046987566545));
#886=CARTESIAN_POINT('',(0.0289492276098453,0.0331767766952967,0.0109046987566545));
#887=CARTESIAN_POINT('',(0.,0.0331767766952967,0.0109046987566545));
#888=CARTESIAN_POINT('',(0.,0.0321767766952967,0.0122218611185664));
#889=CARTESIAN_POINT('',(0.,0.0321767766952967,0.0109046987566545));
#890=CARTESIAN_POINT('',(0.0289492276098453,0.0321767766952967,0.0109046987566545));
#891=CARTESIAN_POINT('',(0.,0.0321767766952967,0.0109046987566545));
#892=CARTESIAN_POINT('',(0.,0.0321767766952967,0.0148674041220265));
#893=CARTESIAN_POINT('',(0.0246499117444512,0.0255650098945896,0.0168596113078691));
#894=CARTESIAN_POINT('',(0.0296109612101937,0.0343483495705504,0.00807627163190829));
#895=CARTESIAN_POINT('',(0.0296109612101937,0.0336412427893639,0.00736916485072174));
#896=CARTESIAN_POINT('',(0.0296109612101937,0.0343483495705504,0.00807627163190829));
#897=CARTESIAN_POINT('',(0.0246499117444512,0.0248579031134031,0.0161525045266825));
#898=CARTESIAN_POINT('',(0.0305684734089146,0.0353364798442079,0.00567392779587781));
#899=CARTESIAN_POINT('',(0.0305684734089146,0.0360435866253944,0.00638103457706436));
#900=CARTESIAN_POINT('',(0.0305684734089146,0.0360435866253944,0.00638103457706436));
#901=CARTESIAN_POINT('',(0.0246499117444512,0.0255650098945896,0.0168596113078691));
#902=CARTESIAN_POINT('',(-0.0246499117444512,0.0255650098945896,0.0168596113078691));
#903=CARTESIAN_POINT('',(-0.0246499117444512,0.0248579031134031,0.0161525045266825));
#904=CARTESIAN_POINT('',(-0.0305684734089146,0.0353364798442079,0.00567392779587781));
#905=CARTESIAN_POINT('',(-0.0296109612101937,0.0336412427893639,0.00736916485072174));
#906=CARTESIAN_POINT('',(-0.0296109612101937,0.0343483495705504,0.00807627163190829));
#907=CARTESIAN_POINT('',(-0.0296109612101937,0.0343483495705504,0.00807627163190829));
#908=CARTESIAN_POINT('',(-0.0246499117444512,0.0255650098945896,0.0168596113078691));
#909=CARTESIAN_POINT('',(-0.0305684734089146,0.0360435866253944,0.00638103457706436));
#910=CARTESIAN_POINT('',(-0.0305684734089146,0.0360435866253944,0.00638103457706436));
#911=CARTESIAN_POINT('',(0.,0.0325264525805139,0.0098981686219448));
#912=CARTESIAN_POINT('',(0.,0.0360435866253944,0.00638103457706436));
#913=CARTESIAN_POINT('',(0.,0.0343483495705504,0.00807627163190829));
#914=CARTESIAN_POINT('',(0.,0.0318193457993274,0.00919106184075826));
#915=CARTESIAN_POINT('',(0.,0.0353364798442079,0.00567392779587781));
#916=CARTESIAN_POINT('',(0.,0.0336412427893639,0.00736916485072174));
#917=CARTESIAN_POINT('',(0.0283139606593633,0.0324158429512412,0.0065436422517797));
#918=CARTESIAN_POINT('',(0.0283139606593633,0.0321994033373031,0.00556734624465977));
#919=CARTESIAN_POINT('',(0.03716055419772,0.0467040826620316,0.00235173625502006));
#920=CARTESIAN_POINT('',(0.0317236262303434,0.03778981568045,0.00432798166621088));
#921=CARTESIAN_POINT('',(0.03716055419772,0.0469205222759697,0.00332803226214));
#922=CARTESIAN_POINT('',(0.03716055419772,0.0469205222759697,0.00332803226214));
#923=CARTESIAN_POINT('',(0.0283139606593633,0.0324158429512412,0.0065436422517797));
#924=CARTESIAN_POINT('',(0.0317236262303434,0.0380062552943881,0.00530427767333081));
#925=CARTESIAN_POINT('',(0.0317236262303434,0.0380062552943881,0.00530427767333081));
#926=CARTESIAN_POINT('',(0.0367730072488466,0.0552062846366737,0.00149112297084416));
#927=CARTESIAN_POINT('',(0.0367730072488466,0.0552062846366737,0.00149112297084416));
#928=CARTESIAN_POINT('',(0.0377257409413145,0.0499311412861335,0.00266059409633531));
#929=CARTESIAN_POINT('',(0.0354159824184353,0.0627199272917566,-0.000174611502794056));
#930=CARTESIAN_POINT('',(0.0377257409413145,0.0499311412861335,0.0026605940963353));
#931=CARTESIAN_POINT('',(0.0377257409413145,0.0497147016721954,0.00168429808921537));
#932=CARTESIAN_POINT('',(0.0367730072488466,0.0549898450227356,0.000514826963724228));
#933=CARTESIAN_POINT('',(0.0354159824184353,0.0625034876778185,-0.00115090750991399));
#934=CARTESIAN_POINT('',(0.0354159824184353,0.0627199272917566,-0.000174611502794056));
#935=CARTESIAN_POINT('',(0.,0.0627199272917566,-0.000174611502794055));
#936=CARTESIAN_POINT('',(0.,0.0625034876778185,-0.00115090750991399));
#937=CARTESIAN_POINT('',(-0.0354159824184353,0.0625034876778185,-0.00115090750991399));
#938=CARTESIAN_POINT('',(-0.0354159824184353,0.0627199272917566,-0.000174611502794056));
#939=CARTESIAN_POINT('',(-0.0354159824184353,0.0627199272917566,-0.000174611502794056));
#940=CARTESIAN_POINT('',(0.,0.0627199272917566,-0.000174611502794055));
#941=CARTESIAN_POINT('',(-0.0367730072488466,0.0552062846366737,0.00149112297084416));
#942=CARTESIAN_POINT('',(-0.0367730072488466,0.0549898450227356,0.000514826963724228));
#943=CARTESIAN_POINT('',(-0.0377257409413145,0.0497147016721955,0.00168429808921537));
#944=CARTESIAN_POINT('',(-0.0377257409413145,0.0499311412861336,0.0026605940963353));
#945=CARTESIAN_POINT('',(-0.0377257409413145,0.0499311412861336,0.0026605940963353));
#946=CARTESIAN_POINT('',(-0.0367730072488466,0.0552062846366737,0.00149112297084416));
#947=CARTESIAN_POINT('',(-0.01,0.0405597587281813,0.00473817959101845));
#948=CARTESIAN_POINT('',(-0.01,0.0405597587281813,0.00473817959101845));
#949=CARTESIAN_POINT('',(-0.01,0.0395834627210614,0.00495461920495655));
#950=CARTESIAN_POINT('',(-0.01,0.0403433191142432,0.00376188358389852));
#951=CARTESIAN_POINT('',(-0.01,0.0393670231071233,0.00397832319783662));
#952=CARTESIAN_POINT('',(-0.0283139606593633,0.0324158429512412,0.0065436422517797));
#953=CARTESIAN_POINT('',(-0.0283139606593633,0.0324158429512412,0.0065436422517797));
#954=CARTESIAN_POINT('',(-0.03716055419772,0.0469205222759697,0.00332803226214));
#955=CARTESIAN_POINT('',(-0.0317236262303434,0.0380062552943881,0.00530427767333081));
#956=CARTESIAN_POINT('',(-0.03716055419772,0.0469205222759697,0.00332803226214));
#957=CARTESIAN_POINT('',(-0.03716055419772,0.0467040826620316,0.00235173625502006));
#958=CARTESIAN_POINT('',(-0.0283139606593633,0.0321994033373031,0.00556734624465977));
#959=CARTESIAN_POINT('',(-0.0317236262303434,0.03778981568045,0.00432798166621088));
#960=CARTESIAN_POINT('',(-0.0317236262303434,0.0380062552943881,0.00530427767333082));
#961=CARTESIAN_POINT('',(0.01,0.0405597587281813,0.00473817959101845));
#962=CARTESIAN_POINT('',(0.01,0.0405597587281813,0.00473817959101845));
#963=CARTESIAN_POINT('',(0.01,0.0395834627210614,0.00495461920495655));
#964=CARTESIAN_POINT('',(0.01,0.0403433191142432,0.00376188358389852));
#965=CARTESIAN_POINT('',(0.01,0.0413196151213632,0.00354544396996041));
#966=CARTESIAN_POINT('',(0.,0.0488759097251935,0.00289453330124808));
#967=CARTESIAN_POINT('',(-0.0332941060527595,0.0491682471848841,0.00282972364674409));
#968=CARTESIAN_POINT('',(0.,0.0380062552943881,0.00530427767333081));
#969=CARTESIAN_POINT('',(0.0332941060527595,0.0491682471848841,0.00282972364674409));
#970=CARTESIAN_POINT('',(0.,0.0486594701112554,0.00191823729412815));
#971=CARTESIAN_POINT('',(-0.0332941060527595,0.048951807570946,0.00185342763962416));
#972=CARTESIAN_POINT('',(0.0332941060527595,0.048951807570946,0.00185342763962416));
#973=CARTESIAN_POINT('',(0.,0.03778981568045,0.00432798166621088));
#974=CARTESIAN_POINT('',(-0.0332941060527595,0.0491682471848841,0.00282972364674409));
#975=CARTESIAN_POINT('',(0.0332941060527595,0.0491682471848841,0.00282972364674409));
#976=CARTESIAN_POINT('',(-0.0317236262303434,0.03778981568045,0.00432798166621088));
#977=CARTESIAN_POINT('',(-0.0315985777587514,0.0375410883788728,0.00438312318142413));
#978=CARTESIAN_POINT('',(-0.0314823217982805,0.0373057100593558,0.0044552475189579));
#979=CARTESIAN_POINT('',(-0.0313210596711735,0.0369746066667078,0.00458195575402509));
#980=CARTESIAN_POINT('',(-0.0312694963173534,0.0368678882502156,0.00462728094471672));
#981=CARTESIAN_POINT('',(-0.0311954373194466,0.036713391359068,0.00469907654638394));
#982=CARTESIAN_POINT('',(-0.0311712986589483,0.0366628215434696,0.00472364344244717));
#983=CARTESIAN_POINT('',(-0.0311359121764066,0.0365883656038005,0.00476134692594975));
#984=CARTESIAN_POINT('',(-0.0311242536002603,0.036563780033107,0.00477405697182161));
#985=CARTESIAN_POINT('',(-0.0311069711130923,0.0365272514461162,0.00479332320302667));
#986=CARTESIAN_POINT('',(-0.0311012445135449,0.0365151335420617,0.00479977880901324));
#987=CARTESIAN_POINT('',(-0.0310927059584867,0.0364970441141864,0.00480951100767074));
#988=CARTESIAN_POINT('',(-0.0310898683308444,0.0364910288760662,0.00481276320562124));
#989=CARTESIAN_POINT('',(-0.0310842101903142,0.0364790275383007,0.00481928361579756));
#990=CARTESIAN_POINT('',(-0.0310817584684278,0.0364738246116707,0.00482212216459358));
#991=CARTESIAN_POINT('',(-0.0308750099451165,0.0360347687134131,0.00506299647875693));
#992=CARTESIAN_POINT('',(-0.030704895758981,0.0356561190510483,0.00535428858903736));
#993=CARTESIAN_POINT('',(-0.0305684734089146,0.0353364798442079,0.00567392779587781));
#994=CARTESIAN_POINT('',(-0.0317236262303434,0.0380062552943881,0.00530427767333081));
#995=CARTESIAN_POINT('',(-0.0315985792236143,0.0378072757840714,0.00534839036874335));
#996=CARTESIAN_POINT('',(-0.0314823217982805,0.0376189707975128,0.00540609035552843));
#997=CARTESIAN_POINT('',(-0.0313210596711735,0.0373540880833943,0.00550745694358218));
#998=CARTESIAN_POINT('',(-0.0312694963173534,0.0372687133502006,0.00554371709613549));
#999=CARTESIAN_POINT('',(-0.0311954373194466,0.0371451158372825,0.00560115357746926));
#1000=CARTESIAN_POINT('',(-0.0311712986589483,0.0371046599848039,0.00562080709431985));
#1001=CARTESIAN_POINT('',(-0.0311359121764066,0.0370450952330686,0.00565096988112191));
#1002=CARTESIAN_POINT('',(-0.0311242536002603,0.0370254267765137,0.00566113791781939));
#1003=CARTESIAN_POINT('',(-0.0311069711130923,0.0369962039069211,0.00567655090278345));
#1004=CARTESIAN_POINT('',(-0.0311012445135449,0.0369865095836775,0.0056817153875727));
#1005=CARTESIAN_POINT('',(-0.0310927059584867,0.0369720380413772,0.0056895011464987));
#1006=CARTESIAN_POINT('',(-0.0310898683308444,0.0369672258508811,0.0056921029048591));
#1007=CARTESIAN_POINT('',(-0.0310842101903142,0.0369576247806687,0.00569731923300016));
#1008=CARTESIAN_POINT('',(-0.0310817584684278,0.0369534624393646,0.00569959007203697));
#1009=CARTESIAN_POINT('',(-0.0308750099451165,0.0366022177207586,0.00589228952336765));
#1010=CARTESIAN_POINT('',(-0.0307048993207201,0.0362993046670247,0.00612531653543399));
#1011=CARTESIAN_POINT('',(-0.0305684734089146,0.0360435866253944,0.00638103457706436));
#1012=CARTESIAN_POINT('',(-0.0317236262303434,0.0380062552943882,0.00530427767333082));
#1013=CARTESIAN_POINT('',(-0.0315985926372141,0.037807297128297,0.00534838563684246));
#1014=CARTESIAN_POINT('',(-0.0313630464166557,0.0374254460643169,0.00546717809479959));
#1015=CARTESIAN_POINT('',(-0.0310803308671388,0.0369542870110486,0.00568430669832336));
#1016=CARTESIAN_POINT('',(-0.0307870964462812,0.036445757938267,0.00601092318579011));
#1017=CARTESIAN_POINT('',(-0.0306367242915154,0.0361715167363773,0.00625310446608143));
#1018=CARTESIAN_POINT('',(-0.0305684734089146,0.0360435866253944,0.00638103457706436));
#1019=CARTESIAN_POINT('',(-0.0317236262303434,0.0377898156804501,0.00432798166621088));
#1020=CARTESIAN_POINT('',(-0.0315985926372141,0.0375411179728361,0.00438311662060044));
#1021=CARTESIAN_POINT('',(-0.0313630464166557,0.0370638041428609,0.00453160719304685));
#1022=CARTESIAN_POINT('',(-0.0310803308671388,0.0364748553262756,0.00480301794745156));
#1023=CARTESIAN_POINT('',(-0.0307870964462812,0.0358391939852986,0.005211288556785));
#1024=CARTESIAN_POINT('',(-0.0306367242915154,0.0354963924829365,0.00551401515714915));
#1025=CARTESIAN_POINT('',(-0.0305684734089146,0.0353364798442079,0.00567392779587781));
#1026=CARTESIAN_POINT('',(0.0305684734089146,0.0353364798442079,0.00567392779587781));
#1027=CARTESIAN_POINT('',(0.0306366695190687,0.0354962641504352,0.00551414348965049));
#1028=CARTESIAN_POINT('',(0.0307132838156733,0.0356706168954353,0.00536148587978588));
#1029=CARTESIAN_POINT('',(0.0308408098939234,0.0359535513438883,0.00514786815735745));
#1030=CARTESIAN_POINT('',(0.030885420617027,0.0360514242760488,0.00507922455926381));
#1031=CARTESIAN_POINT('',(0.0309554897472125,0.0362034383288414,0.00498070879112929));
#1032=CARTESIAN_POINT('',(0.0309793716315293,0.0362549764730005,0.00494861196624813));
#1033=CARTESIAN_POINT('',(0.0310159827193872,0.0363335606469426,0.00490165634552873));
#1034=CARTESIAN_POINT('',(0.0310283177922369,0.0363599681548391,0.0048862027484255));
#1035=CARTESIAN_POINT('',(0.0310470174668571,0.0363998952942538,0.00486332944395315));
#1036=CARTESIAN_POINT('',(0.0310532835359548,0.0364132569842238,0.00485575619133266));
#1037=CARTESIAN_POINT('',(0.0310627319059377,0.0364333780472107,0.00484447429806327));
#1038=CARTESIAN_POINT('',(0.0310658895736547,0.0364400981560368,0.00484072666460168));
#1039=CARTESIAN_POINT('',(0.031072221331201,0.0364535644743735,0.00483325759519906));
#1040=CARTESIAN_POINT('',(0.0310757689435269,0.0364611040473787,0.00482910090514068));
#1041=CARTESIAN_POINT('',(0.0312583395387783,0.0368488848281038,0.00461635708374213));
#1042=CARTESIAN_POINT('',(0.0314731346211803,0.0372915760680684,0.00443843872899318));
#1043=CARTESIAN_POINT('',(0.0317236262303434,0.03778981568045,0.00432798166621088));
#1044=CARTESIAN_POINT('',(0.0305684734089146,0.0360435866253944,0.00638103457706436));
#1045=CARTESIAN_POINT('',(0.0306366697447753,0.0361714144934428,0.00625320670901596));
#1046=CARTESIAN_POINT('',(0.0307132838156733,0.0363108962663764,0.00613108104419082));
#1047=CARTESIAN_POINT('',(0.0308408098939234,0.0365372438251388,0.00596018686624807));
#1048=CARTESIAN_POINT('',(0.030885420617027,0.0366155421708672,0.00590527198777316));
#1049=CARTESIAN_POINT('',(0.0309554897472125,0.0367371534131012,0.00582645937326554));
#1050=CARTESIAN_POINT('',(0.0309793716315293,0.0367783839284286,0.00580078191336062));
#1051=CARTESIAN_POINT('',(0.0310159827193872,0.0368412512675822,0.00576321741678509));
#1052=CARTESIAN_POINT('',(0.0310283177922369,0.0368623772738994,0.00575085453910251));
#1053=CARTESIAN_POINT('',(0.0310470174668571,0.0368943189854312,0.00573255589552463));
#1054=CARTESIAN_POINT('',(0.0310532835359548,0.0369050083374071,0.00572649729342824));
#1055=CARTESIAN_POINT('',(0.0310627319059377,0.0369211051877966,0.00571747177881272));
#1056=CARTESIAN_POINT('',(0.0310658895736547,0.0369264812748575,0.00571447367204346));
#1057=CARTESIAN_POINT('',(0.031072221331201,0.0369372543295269,0.00570849841652136));
#1058=CARTESIAN_POINT('',(0.0310757689435269,0.036943285987931,0.00570517306447465));
#1059=CARTESIAN_POINT('',(0.0312583395387783,0.0372535106125111,0.00553497800735581));
#1060=CARTESIAN_POINT('',(0.0314731563883649,0.0376076982412474,0.00539263564477082));
#1061=CARTESIAN_POINT('',(0.0317236262303434,0.0380062552943881,0.00530427767333081));
#1062=CARTESIAN_POINT('',(0.0305684734089145,0.0360435866253944,0.00638103457706436));
#1063=CARTESIAN_POINT('',(0.030636674551587,0.0361714235033769,0.00625319769908184));
#1064=CARTESIAN_POINT('',(0.0307869628236053,0.0364454807006586,0.00601111262141294));
#1065=CARTESIAN_POINT('',(0.0310804254970412,0.0369544501259375,0.00568421882980587));
#1066=CARTESIAN_POINT('',(0.0313628015197222,0.0374250708423697,0.00546734013324672));
#1067=CARTESIAN_POINT('',(0.0315984909692988,0.0378071353504781,0.00534842150212143));
#1068=CARTESIAN_POINT('',(0.0317236262303434,0.0380062552943882,0.00530427767333082));
#1069=CARTESIAN_POINT('',(0.0305684734089145,0.0353364798442079,0.00567392779587781));
#1070=CARTESIAN_POINT('',(0.030636674551587,0.035496275941686,0.00551413169839966));
#1071=CARTESIAN_POINT('',(0.0307869628236053,0.0358388474382881,0.00521152535131353));
#1072=CARTESIAN_POINT('',(0.0310804254970412,0.0364750592198867,0.0048029081118047));
#1073=CARTESIAN_POINT('',(0.0313628015197222,0.0370633351154269,0.00453180974110576));
#1074=CARTESIAN_POINT('',(0.0315984909692988,0.0375409157505625,0.00438316145219916));
#1075=CARTESIAN_POINT('',(0.0317236262303434,0.0377898156804501,0.00432798166621088));
#1076=CARTESIAN_POINT('',(-1.00140192640062E-5,0.0388720137501406,0.00920946170181055));
#1077=CARTESIAN_POINT('',(-1.00140192640062E-5,0.0388720137501406,0.00920946170181055));
#1078=CARTESIAN_POINT('',(-0.0296109612101937,0.0336412427893639,0.00736916485072174));
#1079=CARTESIAN_POINT('',(-0.0294883672348747,0.0334027561571033,0.00760765148298236));
#1080=CARTESIAN_POINT('',(-0.0293847584442466,0.0331921196087364,0.00786667308787402));
#1081=CARTESIAN_POINT('',(-0.0292577640818727,0.0329206286258632,0.00827563492584545));
#1082=CARTESIAN_POINT('',(-0.0292201723735354,0.03283752168169,0.00841535582789189));
#1083=CARTESIAN_POINT('',(-0.0291708944297107,0.0327240679343423,0.00862876482469535));
#1084=CARTESIAN_POINT('',(-0.0291556533848826,0.0326881162833951,0.00870053948223177));
#1085=CARTESIAN_POINT('',(-0.0291345692223108,0.0326369902777899,0.00880900391161602));
#1086=CARTESIAN_POINT('',(-0.0291278374022318,0.0326204150992549,0.00884529249325413));
#1087=CARTESIAN_POINT('',(-0.029118184023281,0.0325962520456001,0.00889990694167048));
#1088=CARTESIAN_POINT('',(-0.0291150402888254,0.0325883143080771,0.00891814202263467));
#1089=CARTESIAN_POINT('',(-0.0291089009369699,0.0325726719103456,0.0089546695605656));
#1090=CARTESIAN_POINT('',(-0.0291060055890703,0.0325652276818956,0.00897233327959186));
#1091=CARTESIAN_POINT('',(-0.0290062852527906,0.0323062222597688,0.00959762768241846));
#1092=CARTESIAN_POINT('',(-0.0289877495375525,0.0321767766952967,0.0102519398802775));
#1093=CARTESIAN_POINT('',(-0.0290473947655083,0.0321767766952967,0.0109046987566545));
#1094=CARTESIAN_POINT('',(-0.0296109612101937,0.0343483495705504,0.00807627163190829));
#1095=CARTESIAN_POINT('',(-0.0294883680419104,0.0341575615207073,0.00826705968175151));
#1096=CARTESIAN_POINT('',(-0.0293847584442466,0.0339890510260484,0.00847427822163011));
#1097=CARTESIAN_POINT('',(-0.0292577640818727,0.0337718582397498,0.00880144769200726));
#1098=CARTESIAN_POINT('',(-0.0292201723735354,0.0337053726844114,0.0089132244136444));
#1099=CARTESIAN_POINT('',(-0.0291708944297107,0.0336146096865331,0.00908395161108718));
#1100=CARTESIAN_POINT('',(-0.0291556533848826,0.0335858483657754,0.00914137133711632));
#1101=CARTESIAN_POINT('',(-0.0291345692223108,0.0335449475612913,0.00922814288062371));
#1102=CARTESIAN_POINT('',(-0.0291278374022318,0.0335316874184633,0.0092571737459342));
#1103=CARTESIAN_POINT('',(-0.029118184023281,0.0335123569755394,0.00930086530466728));
#1104=CARTESIAN_POINT('',(-0.0291150402888254,0.033506006785521,0.00931545336943863));
#1105=CARTESIAN_POINT('',(-0.0291089009369699,0.0334934928673358,0.00934467539978338));
#1106=CARTESIAN_POINT('',(-0.0291060055890703,0.0334875374845758,0.00935880637500438));
#1107=CARTESIAN_POINT('',(-0.0290062852527906,0.0332803331468743,0.00985904189726567));
#1108=CARTESIAN_POINT('',(-0.0289877495656008,0.0331767766952967,0.0103824919011223));
#1109=CARTESIAN_POINT('',(-0.0290473947655083,0.0331767766952967,0.0109046987566545));
#1110=CARTESIAN_POINT('',(-0.0296109612101938,0.0343483495705505,0.00807627163190829));
#1111=CARTESIAN_POINT('',(-0.0293657994610971,0.0339668117356019,0.00845780946685685));
#1112=CARTESIAN_POINT('',(-0.0290291899969842,0.0333907229150537,0.00932775300787703));
#1113=CARTESIAN_POINT('',(-0.0289877555877273,0.0331767766952967,0.0103825446261656));
#1114=CARTESIAN_POINT('',(-0.0290473947655084,0.0331767766952967,0.0109046987566545));
#1115=CARTESIAN_POINT('',(-0.0296109612101938,0.0336412427893639,0.00736916485072174));
#1116=CARTESIAN_POINT('',(-0.0293657994610971,0.0331643204956782,0.00784608714440744));
#1117=CARTESIAN_POINT('',(-0.0290291899969842,0.032444209469993,0.00893351657068267));
#1118=CARTESIAN_POINT('',(-0.0289877555877273,0.0321767766952967,0.0102520060935433));
#1119=CARTESIAN_POINT('',(-0.0290473947655084,0.0321767766952967,0.0109046987566545));
#1120=CARTESIAN_POINT('',(0.0290473947655083,0.0321767766952967,0.0109046987566545));
#1121=CARTESIAN_POINT('',(0.0290175925370402,0.0321767766952967,0.0105785424179981));
#1122=CARTESIAN_POINT('',(0.0290073238061607,0.0322087928617469,0.0102518368330964));
#1123=CARTESIAN_POINT('',(0.0290212210549582,0.0323043997793913,0.00977036361889125));
#1124=CARTESIAN_POINT('',(0.0290307368565916,0.0323441798779931,0.00961130381151007));
#1125=CARTESIAN_POINT('',(0.0290523356370931,0.0324154875594359,0.00937602567668665));
#1126=CARTESIAN_POINT('',(0.0290607560769355,0.0324411951676541,0.00929815139876497));
#1127=CARTESIAN_POINT('',(0.0290752180062119,0.0324826246897891,0.0091823112701369));
#1128=CARTESIAN_POINT('',(0.0290803438608894,0.0324969124739804,0.0091438597591544));
#1129=CARTESIAN_POINT('',(0.029088490460284,0.0325190554619187,0.00908644308475119));
#1130=CARTESIAN_POINT('',(0.029091282296312,0.0325265550051953,0.00906734762409893));
#1131=CARTESIAN_POINT('',(0.0290970185741605,0.0325417901968037,0.00902924651514583));
#1132=CARTESIAN_POINT('',(0.02910006679903,0.0325497956553376,0.00900958948740297));
#1133=CARTESIAN_POINT('',(0.02919632653408,0.0328000471096234,0.00840542903246275));
#1134=CARTESIAN_POINT('',(0.0293654316809137,0.0331636050391714,0.00784680260091419));
#1135=CARTESIAN_POINT('',(0.0296109612101937,0.0336412427893639,0.00736916485072174));
#1136=CARTESIAN_POINT('',(0.0290473947655083,0.0331767766952967,0.0109046987566545));
#1137=CARTESIAN_POINT('',(0.0290175925369385,0.0331767766952967,0.0106437736848389));
#1138=CARTESIAN_POINT('',(0.0290073238061607,0.0332023896284568,0.010382409217808));
#1139=CARTESIAN_POINT('',(0.0290212210549582,0.0332788751625724,0.0099972306464439));
#1140=CARTESIAN_POINT('',(0.0290307368565916,0.0333106992414538,0.00986998280053895));
#1141=CARTESIAN_POINT('',(0.0290523356370931,0.033367745386608,0.00968176029268021));
#1142=CARTESIAN_POINT('',(0.0290607560769355,0.0333883114731826,0.00961946087034287));
#1143=CARTESIAN_POINT('',(0.0290752180062119,0.0334214550908906,0.00952678876744042));
#1144=CARTESIAN_POINT('',(0.0290803438608894,0.0334328853182436,0.00949602755865441));
#1145=CARTESIAN_POINT('',(0.029088490460284,0.0334505997085943,0.00945009421913185));
#1146=CARTESIAN_POINT('',(0.029091282296312,0.0334565993432156,0.00943481785061004));
#1147=CARTESIAN_POINT('',(0.0290970185741605,0.0334687874965023,0.00940433696344756));
#1148=CARTESIAN_POINT('',(0.02910006679903,0.0334751918633294,0.00938861134125328));
#1149=CARTESIAN_POINT('',(0.02919632653408,0.033675393026758,0.00890528297730109));
#1150=CARTESIAN_POINT('',(0.0293654452746402,0.0339662605259029,0.00845836067655586));
#1151=CARTESIAN_POINT('',(0.0296109612101937,0.0343483495705504,0.00807627163190829));
#1152=CARTESIAN_POINT('',(0.0290473947655083,0.0331767766952967,0.0109046987566545));
#1153=CARTESIAN_POINT('',(0.0289877902646905,0.0331767766952967,0.010382848230612));
#1154=CARTESIAN_POINT('',(0.0290292462137619,0.033390837386885,0.00932748673382253));
#1155=CARTESIAN_POINT('',(0.0293656523505785,0.0339665827919393,0.00845803841051941));
#1156=CARTESIAN_POINT('',(0.0296109612101937,0.0343483495705505,0.00807627163190829));
#1157=CARTESIAN_POINT('',(0.0290473947655083,0.0321767766952967,0.0109046987566545));
#1158=CARTESIAN_POINT('',(0.0289877902646905,0.0321767766952967,0.0102523855991014));
#1159=CARTESIAN_POINT('',(0.0290292462137619,0.0324443525597821,0.00893318372811454));
#1160=CARTESIAN_POINT('',(0.0293656523505785,0.0331640343161,0.00784637332398565));
#1161=CARTESIAN_POINT('',(0.0296109612101937,0.0336412427893639,0.00736916485072174));
#1162=CARTESIAN_POINT('',(-7.64736668010246E-6,0.0371767766952967,0.0109046987566545));
#1163=CARTESIAN_POINT('',(-7.64736668010246E-6,0.0371767766952967,0.0109046987566545));
#1164=CARTESIAN_POINT('',(-0.0292769588006882,0.0321767766952967,0.0148674041220265));
#1165=CARTESIAN_POINT('',(-0.0293067507932542,0.0321767766952967,0.0154323895625477));
#1166=CARTESIAN_POINT('',(-0.0291265984733485,0.0322734420406718,0.0160021154615164));
#1167=CARTESIAN_POINT('',(-0.028736239952592,0.0324660920396821,0.0165435455466555));
#1168=CARTESIAN_POINT('',(-0.0292769588006882,0.0331767766952967,0.0148674041220265));
#1169=CARTESIAN_POINT('',(-0.0293067496936024,0.0331767766952967,0.0153193757911075));
#1170=CARTESIAN_POINT('',(-0.0291265792072048,0.0332541165781889,0.0157751945714427));
#1171=CARTESIAN_POINT('',(-0.028736239952592,0.033408228970805,0.0162083172617297));
#1172=CARTESIAN_POINT('',(-0.0292769588006882,0.0331767766952967,0.0148674041220265));
#1173=CARTESIAN_POINT('',(-0.0293067484356638,0.0331767766952967,0.0153193567063291));
#1174=CARTESIAN_POINT('',(-0.0291265088196318,0.0332541443683667,0.0157752726739001));
#1175=CARTESIAN_POINT('',(-0.0287362399525921,0.033408228970805,0.0162083172617297));
#1176=CARTESIAN_POINT('',(-0.0292769588006882,0.0321767766952967,0.0148674041220265));
#1177=CARTESIAN_POINT('',(-0.0293067484356638,0.0321767766952967,0.0154323448524048));
#1178=CARTESIAN_POINT('',(-0.0291265088196318,0.0322734862866342,0.0160022398118685));
#1179=CARTESIAN_POINT('',(-0.0287362399525921,0.0324660920396821,0.0165435455466555));
#1180=CARTESIAN_POINT('',(0.028736239952592,0.0324660920396821,0.0165435455466555));
#1181=CARTESIAN_POINT('',(0.0291265984733485,0.0322734420406718,0.0160021154615164));
#1182=CARTESIAN_POINT('',(0.0293067507932542,0.0321767766952967,0.0154323895625477));
#1183=CARTESIAN_POINT('',(0.0292769588006882,0.0321767766952967,0.0148674041220265));
#1184=CARTESIAN_POINT('',(0.028736239952592,0.033408228970805,0.0162083172617297));
#1185=CARTESIAN_POINT('',(0.0291265792072048,0.0332541165781889,0.0157751945714427));
#1186=CARTESIAN_POINT('',(0.0293067496936024,0.0331767766952967,0.0153193757911075));
#1187=CARTESIAN_POINT('',(0.0292769588006882,0.0331767766952967,0.0148674041220265));
#1188=CARTESIAN_POINT('',(0.028736239952592,0.033408228970805,0.0162083172617297));
#1189=CARTESIAN_POINT('',(0.0291265088196318,0.0332541443683667,0.0157752726739001));
#1190=CARTESIAN_POINT('',(0.0293067484356638,0.0331767766952967,0.0153193567063291));
#1191=CARTESIAN_POINT('',(0.0292769588006882,0.0331767766952967,0.0148674041220265));
#1192=CARTESIAN_POINT('',(0.028736239952592,0.0324660920396821,0.0165435455466555));
#1193=CARTESIAN_POINT('',(0.0291265088196318,0.0322734862866342,0.0160022398118685));
#1194=CARTESIAN_POINT('',(0.0293067484356638,0.0321767766952967,0.0154323448524048));
#1195=CARTESIAN_POINT('',(0.0292769588006882,0.0321767766952967,0.0148674041220265));
#1196=CARTESIAN_POINT('',(-6.55551573071345E-6,0.0371767766952967,0.0148674041220265));
#1197=CARTESIAN_POINT('',(-6.55551573071345E-6,0.0371767766952967,0.0148674041220265));
#1198=MECHANICAL_DESIGN_GEOMETRIC_PRESENTATION_REPRESENTATION('',(#625),
#1199);
#1199=(
GEOMETRIC_REPRESENTATION_CONTEXT(3)
GLOBAL_UNCERTAINTY_ASSIGNED_CONTEXT((#1200))
GLOBAL_UNIT_ASSIGNED_CONTEXT((#1203,#1202,#1201))
REPRESENTATION_CONTEXT('Part 8','TOP_LEVEL_ASSEMBLY_PART')
);
#1200=UNCERTAINTY_MEASURE_WITH_UNIT(LENGTH_MEASURE(2.E-5),#1203,
'DISTANCE_ACCURACY_VALUE','Maximum Tolerance applied to model');
#1201=(
NAMED_UNIT(*)
SI_UNIT($,.STERADIAN.)
SOLID_ANGLE_UNIT()
);
#1202=(
NAMED_UNIT(*)
PLANE_ANGLE_UNIT()
SI_UNIT($,.RADIAN.)
);
#1203=(
LENGTH_UNIT()
NAMED_UNIT(*)
SI_UNIT($,.METRE.)
);
#1204=PRODUCT_DEFINITION_SHAPE('','',#1205);
#1205=PRODUCT_DEFINITION('','',#1207,#1206);
#1206=PRODUCT_DEFINITION_CONTEXT('',#1213,'design');
#1207=PRODUCT_DEFINITION_FORMATION_WITH_SPECIFIED_SOURCE('','',#1209,
 .NOT_KNOWN.);
#1208=PRODUCT_RELATED_PRODUCT_CATEGORY('','',(#1209));
#1209=PRODUCT('Part 8','Part 8','Part 8',(#1211));
#1210=PRODUCT_CATEGORY('','');
#1211=PRODUCT_CONTEXT('',#1213,'mechanical');
#1212=APPLICATION_PROTOCOL_DEFINITION('international standard',
'ap242_managed_model_based_3d_engineering',2020,#1213);
#1213=APPLICATION_CONTEXT('managed model based 3d engineering');
ENDSEC;
END-ISO-10303-21;
