ISO-10303-21;
HEADER;
/* Generated by software containing ST-Developer
 * from STEP Tools, Inc. (www.steptools.com) 
 */
/* OPTION: using custom renumber hook */

FILE_DESCRIPTION(
/* description */ ('STEP AP242 Edition 2',
'CAx-IF Rec.Pracs.---Representation and Presentation of Product Manufa
cturing Information (PMI)---4.0---2014-10-13',
'CAx-IF Rec.Pracs.---3D Tessellated Geometry---0.4---2014-09-14','2;1',
'CAx-IF Rec.Pracs.---User Defined Attributes---1.5---2016-08-15'),
/* implementation_level */ '2;1');

FILE_NAME(
/* name */ 'Havoc F v5 Long - Part 10',
/* time_stamp */ '2026-05-25T18:05:57Z',
/* author */ (''),
/* organization */ (''),
/* preprocessor_version */ 'ST-DEVELOPER v20',
/* originating_system */ 'ONSHAPE BY PTC INC, 1.215',
/* authorisation */ '  ');

FILE_SCHEMA (('AP242_MANAGED_MODEL_BASED_3D_ENGINEERING_MIM_LF { 1 0 10303 442 3 1 4 }'));
ENDSEC;

DATA;
#10=SHAPE_REPRESENTATION_RELATIONSHIP('','',#137,#11);
#11=ADVANCED_BREP_SHAPE_REPRESENTATION('',(#135),#233);
#12=CONICAL_SURFACE('',#154,0.008,0.785398163397448);
#13=CONICAL_SURFACE('',#155,0.007,0.785398163397452);
#14=TOROIDAL_SURFACE('',#150,0.008,0.001);
#15=CYLINDRICAL_SURFACE('',#141,0.00155);
#16=CYLINDRICAL_SURFACE('',#147,0.008);
#17=CYLINDRICAL_SURFACE('',#152,0.008);
#18=CIRCLE('',#140,0.00155);
#19=CIRCLE('',#142,0.00155);
#20=CIRCLE('',#144,0.007);
#21=CIRCLE('',#146,0.007);
#22=CIRCLE('',#148,0.008);
#23=CIRCLE('',#149,0.008);
#24=CIRCLE('',#151,0.008);
#25=CIRCLE('',#153,0.008);
#26=ORIENTED_EDGE('',*,*,#50,.F.);
#27=ORIENTED_EDGE('',*,*,#51,.T.);
#28=ORIENTED_EDGE('',*,*,#52,.F.);
#29=ORIENTED_EDGE('',*,*,#51,.F.);
#30=ORIENTED_EDGE('',*,*,#53,.T.);
#31=ORIENTED_EDGE('',*,*,#54,.T.);
#32=ORIENTED_EDGE('',*,*,#55,.T.);
#33=ORIENTED_EDGE('',*,*,#56,.T.);
#34=ORIENTED_EDGE('',*,*,#54,.F.);
#35=ORIENTED_EDGE('',*,*,#57,.F.);
#36=ORIENTED_EDGE('',*,*,#58,.T.);
#37=ORIENTED_EDGE('',*,*,#59,.T.);
#38=ORIENTED_EDGE('',*,*,#59,.F.);
#39=ORIENTED_EDGE('',*,*,#60,.T.);
#40=ORIENTED_EDGE('',*,*,#61,.T.);
#41=ORIENTED_EDGE('',*,*,#60,.F.);
#42=ORIENTED_EDGE('',*,*,#55,.F.);
#43=ORIENTED_EDGE('',*,*,#61,.F.);
#44=ORIENTED_EDGE('',*,*,#58,.F.);
#45=ORIENTED_EDGE('',*,*,#56,.F.);
#46=ORIENTED_EDGE('',*,*,#53,.F.);
#47=ORIENTED_EDGE('',*,*,#50,.T.);
#48=ORIENTED_EDGE('',*,*,#52,.T.);
#49=ORIENTED_EDGE('',*,*,#57,.T.);
#50=EDGE_CURVE('',#62,#63,#72,.T.);
#51=EDGE_CURVE('',#62,#63,#18,.T.);
#52=EDGE_CURVE('',#63,#64,#73,.T.);
#53=EDGE_CURVE('',#62,#65,#74,.T.);
#54=EDGE_CURVE('',#65,#64,#19,.T.);
#55=EDGE_CURVE('',#66,#66,#20,.T.);
#56=EDGE_CURVE('',#67,#67,#21,.T.);
#57=EDGE_CURVE('',#64,#65,#75,.T.);
#58=EDGE_CURVE('',#68,#68,#22,.F.);
#59=EDGE_CURVE('',#69,#69,#23,.T.);
#60=EDGE_CURVE('',#70,#70,#24,.T.);
#61=EDGE_CURVE('',#71,#71,#25,.F.);
#62=VERTEX_POINT('',#202);
#63=VERTEX_POINT('',#203);
#64=VERTEX_POINT('',#207);
#65=VERTEX_POINT('',#209);
#66=VERTEX_POINT('',#213);
#67=VERTEX_POINT('',#216);
#68=VERTEX_POINT('',#220);
#69=VERTEX_POINT('',#222);
#70=VERTEX_POINT('',#225);
#71=VERTEX_POINT('',#228);
#72=LINE('',#201,#76);
#73=LINE('',#206,#77);
#74=LINE('',#208,#78);
#75=LINE('',#217,#79);
#76=VECTOR('',#161,1.);
#77=VECTOR('',#166,1.);
#78=VECTOR('',#167,1.);
#79=VECTOR('',#178,1.);
#80=EDGE_LOOP('',(#26,#27));
#81=EDGE_LOOP('',(#28,#29,#30,#31));
#82=EDGE_LOOP('',(#32));
#83=EDGE_LOOP('',(#33));
#84=EDGE_LOOP('',(#34,#35));
#85=EDGE_LOOP('',(#36));
#86=EDGE_LOOP('',(#37));
#87=EDGE_LOOP('',(#38));
#88=EDGE_LOOP('',(#39));
#89=EDGE_LOOP('',(#40));
#90=EDGE_LOOP('',(#41));
#91=EDGE_LOOP('',(#42));
#92=EDGE_LOOP('',(#43));
#93=EDGE_LOOP('',(#44));
#94=EDGE_LOOP('',(#45));
#95=EDGE_LOOP('',(#46,#47,#48,#49));
#96=FACE_BOUND('',#80,.T.);
#97=FACE_BOUND('',#81,.T.);
#98=FACE_BOUND('',#82,.T.);
#99=FACE_BOUND('',#83,.T.);
#100=FACE_BOUND('',#84,.T.);
#101=FACE_BOUND('',#85,.T.);
#102=FACE_BOUND('',#86,.T.);
#103=FACE_BOUND('',#87,.T.);
#104=FACE_BOUND('',#88,.T.);
#105=FACE_BOUND('',#89,.T.);
#106=FACE_BOUND('',#90,.T.);
#107=FACE_BOUND('',#91,.T.);
#108=FACE_BOUND('',#92,.T.);
#109=FACE_BOUND('',#93,.T.);
#110=FACE_BOUND('',#94,.T.);
#111=FACE_BOUND('',#95,.T.);
#112=PLANE('',#139);
#113=PLANE('',#143);
#114=PLANE('',#145);
#115=PLANE('',#156);
#116=ADVANCED_FACE('',(#96),#112,.F.);
#117=ADVANCED_FACE('',(#97),#15,.F.);
#118=ADVANCED_FACE('',(#98),#113,.T.);
#119=ADVANCED_FACE('',(#99,#100),#114,.T.);
#120=ADVANCED_FACE('',(#101,#102),#16,.T.);
#121=ADVANCED_FACE('',(#103,#104),#14,.F.);
#122=ADVANCED_FACE('',(#105,#106),#17,.T.);
#123=ADVANCED_FACE('',(#107,#108),#12,.T.);
#124=ADVANCED_FACE('',(#109,#110),#13,.T.);
#125=ADVANCED_FACE('',(#111),#115,.F.);
#126=CLOSED_SHELL('',(#116,#117,#118,#119,#120,#121,#122,#123,#124,#125));
#127=STYLED_ITEM('',(#128),#135);
#128=PRESENTATION_STYLE_ASSIGNMENT((#129));
#129=SURFACE_STYLE_USAGE(.BOTH.,#130);
#130=SURFACE_SIDE_STYLE('',(#131));
#131=SURFACE_STYLE_FILL_AREA(#132);
#132=FILL_AREA_STYLE('',(#133));
#133=FILL_AREA_STYLE_COLOUR('',#134);
#134=COLOUR_RGB('',0.262745098039216,0.258823529411765,0.258823529411765);
#135=MANIFOLD_SOLID_BREP('Part 10',#126);
#136=SHAPE_DEFINITION_REPRESENTATION(#238,#137);
#137=SHAPE_REPRESENTATION('Part 10',(#138),#233);
#138=AXIS2_PLACEMENT_3D('',#199,#157,#158);
#139=AXIS2_PLACEMENT_3D('',#200,#159,#160);
#140=AXIS2_PLACEMENT_3D('',#204,#162,#163);
#141=AXIS2_PLACEMENT_3D('',#205,#164,#165);
#142=AXIS2_PLACEMENT_3D('',#210,#168,#169);
#143=AXIS2_PLACEMENT_3D('',#211,#170,#171);
#144=AXIS2_PLACEMENT_3D('',#212,#172,#173);
#145=AXIS2_PLACEMENT_3D('',#214,#174,#175);
#146=AXIS2_PLACEMENT_3D('',#215,#176,#177);
#147=AXIS2_PLACEMENT_3D('',#218,#179,#180);
#148=AXIS2_PLACEMENT_3D('',#219,#181,#182);
#149=AXIS2_PLACEMENT_3D('',#221,#183,#184);
#150=AXIS2_PLACEMENT_3D('',#223,#185,#186);
#151=AXIS2_PLACEMENT_3D('',#224,#187,#188);
#152=AXIS2_PLACEMENT_3D('',#226,#189,#190);
#153=AXIS2_PLACEMENT_3D('',#227,#191,#192);
#154=AXIS2_PLACEMENT_3D('',#229,#193,#194);
#155=AXIS2_PLACEMENT_3D('',#230,#195,#196);
#156=AXIS2_PLACEMENT_3D('',#231,#197,#198);
#157=DIRECTION('',(0.,0.,1.));
#158=DIRECTION('',(1.,0.,0.));
#159=DIRECTION('',(-1.,0.,0.));
#160=DIRECTION('',(0.,0.,1.));
#161=DIRECTION('',(0.,0.,-1.));
#162=DIRECTION('',(1.,0.,0.));
#163=DIRECTION('',(0.,0.,-1.));
#164=DIRECTION('',(1.,0.,0.));
#165=DIRECTION('',(0.,0.,-1.));
#166=DIRECTION('',(1.,0.,0.));
#167=DIRECTION('',(1.,0.,0.));
#168=DIRECTION('',(1.,0.,0.));
#169=DIRECTION('',(0.,0.,-1.));
#170=DIRECTION('',(-1.,0.,0.));
#171=DIRECTION('',(0.,0.,1.));
#172=DIRECTION('',(-1.,0.,0.));
#173=DIRECTION('',(0.,0.,1.));
#174=DIRECTION('',(1.,0.,0.));
#175=DIRECTION('',(0.,0.,-1.));
#176=DIRECTION('',(1.,0.,0.));
#177=DIRECTION('',(0.,0.,-1.));
#178=DIRECTION('',(0.,0.,1.));
#179=DIRECTION('',(1.,0.,0.));
#180=DIRECTION('',(0.,0.,-1.));
#181=DIRECTION('',(1.,0.,0.));
#182=DIRECTION('',(0.,0.,-1.));
#183=DIRECTION('',(1.,0.,0.));
#184=DIRECTION('',(0.,0.,-1.));
#185=DIRECTION('',(1.,0.,0.));
#186=DIRECTION('',(0.,0.,-1.));
#187=DIRECTION('',(1.,0.,0.));
#188=DIRECTION('',(0.,0.,-1.));
#189=DIRECTION('',(1.,0.,0.));
#190=DIRECTION('',(0.,0.,-1.));
#191=DIRECTION('',(-1.,0.,0.));
#192=DIRECTION('',(0.,0.,1.));
#193=DIRECTION('',(1.,0.,0.));
#194=DIRECTION('',(0.,0.,-1.));
#195=DIRECTION('',(-1.,0.,0.));
#196=DIRECTION('',(0.,0.,1.));
#197=DIRECTION('',(0.,1.,0.));
#198=DIRECTION('',(0.,0.,1.));
#199=CARTESIAN_POINT('',(0.,0.,0.));
#200=CARTESIAN_POINT('',(-0.048,0.021775,0.008));
#201=CARTESIAN_POINT('',(-0.048,0.0223,0.008));
#202=CARTESIAN_POINT('',(-0.048,0.0223,0.00884409715080672));
#203=CARTESIAN_POINT('',(-0.048,0.0223,0.00715590284919328));
#204=CARTESIAN_POINT('',(-0.048,0.021,0.008));
#205=CARTESIAN_POINT('',(-0.045,0.021,0.008));
#206=CARTESIAN_POINT('',(-0.0485,0.0223,0.00715590284919328));
#207=CARTESIAN_POINT('',(-0.0415,0.0223,0.00715590284919328));
#208=CARTESIAN_POINT('',(-0.0485,0.0223,0.00884409715080672));
#209=CARTESIAN_POINT('',(-0.0415,0.0223,0.00884409715080672));
#210=CARTESIAN_POINT('',(-0.0415,0.021,0.008));
#211=CARTESIAN_POINT('',(-0.0485,0.026775,0.008));
#212=CARTESIAN_POINT('',(-0.0485,0.021,0.008));
#213=CARTESIAN_POINT('',(-0.0485,0.021,0.015));
#214=CARTESIAN_POINT('',(-0.0415,0.02355,0.008));
#215=CARTESIAN_POINT('',(-0.0415,0.021,0.008));
#216=CARTESIAN_POINT('',(-0.0415,0.021,0.001));
#217=CARTESIAN_POINT('',(-0.0415,0.0223,0.008));
#218=CARTESIAN_POINT('',(-0.045,0.021,0.008));
#219=CARTESIAN_POINT('',(-0.0425,0.021,0.008));
#220=CARTESIAN_POINT('',(-0.0425,0.021,0.));
#221=CARTESIAN_POINT('',(-0.044,0.021,0.008));
#222=CARTESIAN_POINT('',(-0.044,0.021,0.));
#223=CARTESIAN_POINT('',(-0.045,0.021,0.008));
#224=CARTESIAN_POINT('',(-0.046,0.021,0.008));
#225=CARTESIAN_POINT('',(-0.046,0.021,0.));
#226=CARTESIAN_POINT('',(-0.045,0.021,0.008));
#227=CARTESIAN_POINT('',(-0.0475,0.021,0.008));
#228=CARTESIAN_POINT('',(-0.0475,0.021,0.016));
#229=CARTESIAN_POINT('',(-0.0475,0.021,0.008));
#230=CARTESIAN_POINT('',(-0.0415,0.021,0.008));
#231=CARTESIAN_POINT('',(-0.0485,0.0223,0.008));
#232=MECHANICAL_DESIGN_GEOMETRIC_PRESENTATION_REPRESENTATION('',(#127),
#233);
#233=(
GEOMETRIC_REPRESENTATION_CONTEXT(3)
GLOBAL_UNCERTAINTY_ASSIGNED_CONTEXT((#234))
GLOBAL_UNIT_ASSIGNED_CONTEXT((#237,#236,#235))
REPRESENTATION_CONTEXT('Part 10','TOP_LEVEL_ASSEMBLY_PART')
);
#234=UNCERTAINTY_MEASURE_WITH_UNIT(LENGTH_MEASURE(1.E-8),#237,
'DISTANCE_ACCURACY_VALUE','Maximum Tolerance applied to model');
#235=(
NAMED_UNIT(*)
SI_UNIT($,.STERADIAN.)
SOLID_ANGLE_UNIT()
);
#236=(
NAMED_UNIT(*)
PLANE_ANGLE_UNIT()
SI_UNIT($,.RADIAN.)
);
#237=(
LENGTH_UNIT()
NAMED_UNIT(*)
SI_UNIT($,.METRE.)
);
#238=PRODUCT_DEFINITION_SHAPE('','',#239);
#239=PRODUCT_DEFINITION('','',#241,#240);
#240=PRODUCT_DEFINITION_CONTEXT('',#247,'design');
#241=PRODUCT_DEFINITION_FORMATION_WITH_SPECIFIED_SOURCE('','',#243,
 .NOT_KNOWN.);
#242=PRODUCT_RELATED_PRODUCT_CATEGORY('','',(#243));
#243=PRODUCT('Part 10','Part 10','Part 10',(#245));
#244=PRODUCT_CATEGORY('','');
#245=PRODUCT_CONTEXT('',#247,'mechanical');
#246=APPLICATION_PROTOCOL_DEFINITION('international standard',
'ap242_managed_model_based_3d_engineering',2020,#247);
#247=APPLICATION_CONTEXT('managed model based 3d engineering');
ENDSEC;
END-ISO-10303-21;
